<svg width="32" height="32" viewBox="0 0 32 32" fill="none" xmlns="http://www.w3.org/2000/svg">
<path fill-rule="evenodd" clip-rule="evenodd" d="M10.6667 11.8775C10.6667 12.849 10.8864 13.7526 11.3257 14.5885C11.786 15.4244 12.4033 16.0908 13.1774 16.5878C13.9516 17.0848 14.7989 17.3333 15.7195 17.3333C16.6401 17.3333 17.4875 17.0848 18.2617 16.5878C19.0358 16.0908 19.6426 15.4244 20.082 14.5885C20.5423 13.7526 20.7724 12.849 20.7724 11.8775V9.45579C20.7724 8.46177 20.5423 7.54683 20.082 6.71095C19.6426 5.87507 19.0358 5.21993 18.2617 4.74551C17.4875 4.2485 16.6401 4 15.7195 4C14.7989 4 13.9516 4.2485 13.1774 4.74551C12.4033 5.21993 11.786 5.87507 11.3257 6.71095C10.8864 7.54683 10.6667 8.46177 10.6667 9.45579V11.8775ZM16 18.6667C17.9084 18.6667 19.6259 18.9314 21.1526 19.461C22.4382 19.9023 23.5531 20.5201 24.4972 21.3144C25.2806 21.9543 25.8833 22.6493 26.3051 23.3995C26.5462 23.8629 26.6667 24.4697 26.6667 25.2199C26.6667 25.9701 26.4156 26.621 25.9134 27.1726C25.4313 27.7242 24.8387 28 24.1356 28H7.86442C7.16134 28 6.5587 27.7242 6.05651 27.1726C5.5744 26.621 5.33334 25.9701 5.33334 25.2199C5.33334 24.4697 5.45387 23.8629 5.69493 23.3995C6.11677 22.6493 6.71941 21.9543 7.50284 21.3144C8.44697 20.5201 9.56184 19.9023 10.8475 19.461C12.3741 18.9314 14.0917 18.6667 16 18.6667Z" fill="#75828A"/>
</svg>
