<svg width="33" height="32" viewBox="0 0 33 32" fill="none" xmlns="http://www.w3.org/2000/svg">
<path fill-rule="evenodd" clip-rule="evenodd" d="M27.4603 25.3333H24.6301C24.5481 24.9571 24.4248 24.5942 24.2493 24.2542L24.2374 24.2312L24.2247 24.2086C23.7185 23.3017 23.0168 22.4989 22.1583 21.791C21.1105 20.9049 19.8914 20.231 18.5225 19.7574C18.0096 19.5782 17.4803 19.4287 16.9353 19.3079C17.533 18.7795 18.0239 18.1469 18.4048 17.4207C18.5596 17.1361 18.6928 16.8447 18.8046 16.5471C19.1406 16.528 19.4835 16.5185 19.8332 16.5185C21.6223 16.5185 23.2325 16.7685 24.6637 17.2687C25.869 17.6854 26.9142 18.2689 27.7993 19.0191C28.5338 19.6235 29.0988 20.2799 29.4942 20.9884C29.7202 21.426 29.8332 21.9991 29.8332 22.7076C29.8332 23.4161 29.5978 24.0309 29.127 24.5518C28.675 25.0728 28.1195 25.3333 27.4603 25.3333ZM19.5703 15.2592C19.4287 15.2592 19.289 15.2529 19.1512 15.2403C19.2109 14.8696 19.2407 14.4913 19.2407 14.1065V11.8193C19.2407 10.6296 18.9656 9.50453 18.4048 8.47306C17.8688 7.45132 17.1123 6.62087 16.1417 6.0181C15.8666 5.84122 15.5828 5.68869 15.2911 5.56079C15.3405 5.44807 15.3938 5.3368 15.4511 5.22697C15.8826 4.43753 16.4613 3.81878 17.187 3.37072C17.9128 2.90132 18.7072 2.66663 19.5703 2.66663C20.4333 2.66663 21.2278 2.90132 21.9535 3.37072C22.6793 3.81878 23.2481 4.43753 23.66 5.22697C24.0916 6.01641 24.3073 6.88052 24.3073 7.81932V10.1065C24.3073 11.024 24.0916 11.8774 23.66 12.6669C23.2481 13.4563 22.6793 14.0857 21.9535 14.5551C21.2278 15.0245 20.4333 15.2592 19.5703 15.2592ZM8.78453 16.6669C8.37262 15.8774 8.16666 15.024 8.16666 14.1065V11.8193C8.16666 10.8805 8.37262 10.0164 8.78453 9.22697C9.21607 8.43753 9.79471 7.81878 10.5205 7.37072C11.2462 6.90132 12.0406 6.66663 12.9037 6.66663C13.7668 6.66663 14.5612 6.90132 15.287 7.37072C16.0127 7.81878 16.5816 8.43753 16.9935 9.22697C17.425 10.0164 17.6408 10.8805 17.6408 11.8193V14.1065C17.6408 15.024 17.425 15.8774 16.9935 16.6669C16.5816 17.4563 16.0127 18.0857 15.287 18.5551C14.5612 19.0245 13.7668 19.2592 12.9037 19.2592C12.0406 19.2592 11.2462 19.0245 10.5205 18.5551C9.79471 18.0857 9.21607 17.4563 8.78453 16.6669ZM17.9972 21.2687C16.5659 20.7685 14.9557 20.5185 13.1667 20.5185C11.3776 20.5185 9.76741 20.7685 8.33615 21.2687C7.13087 21.6854 6.08568 22.2689 5.20056 23.0191C4.46609 23.6235 3.90112 24.2799 3.50564 24.9884C3.27965 25.426 3.16666 25.9991 3.16666 26.7076C3.16666 27.4161 3.39265 28.0309 3.84462 28.5518C4.31543 29.0728 4.8804 29.3333 5.53954 29.3333H20.7938C21.4529 29.3333 22.0085 29.0728 22.4604 28.5518C22.9313 28.0309 23.1667 27.4161 23.1667 26.7076C23.1667 25.9991 23.0537 25.426 22.8277 24.9884C22.4322 24.2799 21.8672 23.6235 21.1328 23.0191C20.2476 22.2689 19.2024 21.6854 17.9972 21.2687Z" fill="#75828A"/>
</svg>
