<svg width="33" height="32" viewBox="0 0 33 32" fill="none" xmlns="http://www.w3.org/2000/svg">
<path fill-rule="evenodd" clip-rule="evenodd" d="M27.4604 25.3332H24.6302C24.5481 24.957 24.4248 24.5941 24.2493 24.2541L24.2374 24.2311L24.2248 24.2084C23.7185 23.3015 23.0168 22.4988 22.1584 21.7909C21.1105 20.9048 19.8915 20.2309 18.5226 19.7573C18.0096 19.5781 17.4803 19.4286 16.9354 19.3078C17.533 18.7794 18.0239 18.1468 18.4048 17.4206C18.5596 17.1359 18.6928 16.8446 18.8046 16.547C19.1406 16.5279 19.4835 16.5184 19.8332 16.5184C21.6223 16.5184 23.2325 16.7684 24.6638 17.2686C25.869 17.6853 26.9142 18.2688 27.7994 19.019C28.5338 19.6233 29.0988 20.2798 29.4943 20.9883C29.7203 21.4259 29.8332 21.999 29.8332 22.7075C29.8332 23.416 29.5978 24.0307 29.127 24.5517C28.6751 25.0727 28.1195 25.3332 27.4604 25.3332ZM19.5703 15.2591C19.4288 15.2591 19.2891 15.2528 19.1512 15.2402C19.2109 14.8694 19.2408 14.4912 19.2408 14.1064V11.8192C19.2408 10.6295 18.9657 9.50441 18.4048 8.47294C17.8688 7.4512 17.1124 6.62075 16.1417 6.01798C15.8667 5.84109 15.5829 5.68857 15.2912 5.56066C15.3405 5.44795 15.3938 5.33667 15.4511 5.22685C15.8827 4.43741 16.4613 3.81866 17.1871 3.3706C17.9128 2.9012 18.7072 2.6665 19.5703 2.6665C20.4334 2.6665 21.2278 2.9012 21.9535 3.3706C22.6793 3.81866 23.2482 4.43741 23.6601 5.22685C24.0916 6.01629 24.3074 6.8804 24.3074 7.81919V10.1064C24.3074 11.0239 24.0916 11.8773 23.6601 12.6667C23.2482 13.4562 22.6793 14.0856 21.9535 14.555C21.2278 15.0244 20.4334 15.2591 19.5703 15.2591ZM8.78456 16.6667C8.37265 15.8773 8.16669 15.0239 8.16669 14.1064V11.8192C8.16669 10.8804 8.37265 10.0163 8.78456 9.22685C9.2161 8.43741 9.79474 7.81866 10.5205 7.3706C11.2463 6.9012 12.0407 6.6665 12.9037 6.6665C13.7668 6.6665 14.5612 6.9012 15.287 7.3706C16.0127 7.81866 16.5816 8.43741 16.9935 9.22685C17.425 10.0163 17.6408 10.8804 17.6408 11.8192V14.1064C17.6408 15.0239 17.425 15.8773 16.9935 16.6667C16.5816 17.4562 16.0127 18.0856 15.287 18.555C14.5612 19.0244 13.7668 19.2591 12.9037 19.2591C12.0407 19.2591 11.2463 19.0244 10.5205 18.555C9.79474 18.0856 9.2161 17.4562 8.78456 16.6667ZM17.9972 21.2686C16.5659 20.7684 14.9558 20.5184 13.1667 20.5184C11.3776 20.5184 9.76744 20.7684 8.33618 21.2686C7.13091 21.6853 6.08571 22.2688 5.20059 23.019C4.46612 23.6233 3.90115 24.2798 3.50567 24.9883C3.27968 25.4259 3.16669 25.999 3.16669 26.7075C3.16669 27.416 3.39268 28.0307 3.84465 28.5517C4.31546 29.0727 4.88043 29.3332 5.53957 29.3332H20.7938C21.4529 29.3332 22.0085 29.0727 22.4605 28.5517C22.9313 28.0307 23.1667 27.416 23.1667 26.7075C23.1667 25.999 23.0537 25.4259 22.8277 24.9883C22.4322 24.2798 21.8673 23.6233 21.1328 23.019C20.2477 22.2688 19.2025 21.6853 17.9972 21.2686Z" fill="#009DFF"/>
</svg>
