<svg width="100" height="100" viewBox="0 0 100 100" fill="none" xmlns="http://www.w3.org/2000/svg">
<rect width="100" height="100" fill="#ACB4B9"/>
<path fill-rule="evenodd" clip-rule="evenodd" d="M54.4454 51.706C54.6623 51.5865 54.8767 51.4587 55.0887 51.3226C56.8305 50.2043 58.1958 48.7048 59.1844 46.8241C60.22 44.9434 60.7379 42.9102 60.7379 40.7245V35.2755C60.7379 33.039 60.22 30.9804 59.1844 29.0996C58.1958 27.2189 56.8305 25.7448 55.0887 24.6774C53.3469 23.5591 51.4403 23 49.3689 23C47.2976 23 45.391 23.5591 43.6492 24.6774C41.9073 25.7448 40.5186 27.2189 39.4829 29.0996C38.4943 30.9804 38 33.039 38 35.2755V40.7245C38 42.9102 38.4943 44.9434 39.4829 46.8241C40.5186 48.7048 41.9073 50.2043 43.6492 51.3226C43.9298 51.5028 44.2148 51.6685 44.5041 51.8196C46.0097 52.6065 47.6314 53 49.3689 53C49.581 53 49.7914 52.9941 50 52.9824C51.581 52.8936 53.0628 52.4681 54.4454 51.706ZM55.232 56.3215C53.5653 56.1072 51.8213 56 50 56C49.7886 56 49.5783 56.0014 49.3689 56.0043C47.4337 56.031 45.5874 56.1812 43.83 56.4548C41.9168 56.7526 40.1091 57.1968 38.4068 57.7872C35.5141 58.7801 33.0057 60.1702 30.8814 61.9574C29.1186 63.3972 27.7627 64.961 26.8136 66.6489C26.2712 67.6915 26 69.0567 26 70.7447C26 72.4326 26.5424 73.8972 27.6271 75.1383C28.7571 76.3794 30.113 77 31.6949 77H68.3051C69.887 77 71.2203 76.3794 72.3051 75.1383C73.435 73.8972 74 72.4326 74 70.7447C74 69.0567 73.7288 67.6915 73.1864 66.6489C72.2373 64.961 70.8814 63.3972 69.1186 61.9574C66.9944 60.1702 64.4859 58.7801 61.5932 57.7872C59.6152 57.1011 57.4948 56.6126 55.232 56.3215ZM69.2159 68.77C68.5856 67.6767 67.639 66.5592 66.272 65.4427L66.2467 65.422L66.2216 65.4009C64.5629 64.0054 62.5535 62.8746 60.1323 62.0435L60.1185 62.0388C57.2348 61.0385 53.8804 60.5 50 60.5C46.1196 60.5 42.7652 61.0385 39.8815 62.0387L39.8677 62.0435L39.8677 62.0435C37.4465 62.8746 35.4371 64.0054 33.7784 65.4009L33.7533 65.422L33.728 65.4427C32.361 66.5592 31.4144 67.6767 30.7841 68.77C30.6821 68.9926 30.5 69.5733 30.5 70.7447C30.5 71.3543 30.6567 71.754 30.986 72.1427C31.3015 72.4791 31.4715 72.5 31.6949 72.5H68.3051C68.4905 72.5 68.5649 72.4678 68.5927 72.4548C68.6252 72.4397 68.7375 72.3821 68.9168 72.1769L68.9468 72.1426L68.9775 72.1089C69.3484 71.7015 69.5 71.3191 69.5 70.7447C69.5 69.5733 69.3179 68.9925 69.2159 68.77ZM43.446 44.6918C44.1312 45.9227 45.0038 46.8447 46.0803 47.5358L43.6492 51.3226L46.0803 47.5358C47.0962 48.1881 48.1589 48.5 49.3689 48.5C50.579 48.5 51.6416 48.1881 52.6576 47.5358C53.7264 46.8496 54.5647 45.941 55.2011 44.7303L55.2215 44.6917L55.2425 44.6534C55.9052 43.45 56.2379 42.1654 56.2379 40.7245V35.2755C56.2379 33.7652 55.8965 32.4579 55.2425 31.2703L55.2215 31.2321L55.2011 31.1934C54.5738 30 53.7598 29.1408 52.7374 28.5142L52.6972 28.4896L52.6576 28.4642C51.6416 27.8119 50.579 27.5 49.3689 27.5C48.1589 27.5 47.0962 27.8119 46.0803 28.4642L46.0407 28.4896L46.0005 28.5142C44.9697 29.146 44.1216 30.0189 43.446 31.2319C42.8278 32.4227 42.5 33.7454 42.5 35.2755V40.7245C42.5 42.1868 42.8201 43.4866 43.446 44.6918Z" fill="#464E53"/>
</svg>
