<svg width="100" height="100" viewBox="0 0 100 100" fill="none" xmlns="http://www.w3.org/2000/svg">
<rect width="100" height="100" fill="#ACB4B9"/>
<path fill-rule="evenodd" clip-rule="evenodd" d="M58.3562 54.4001C57.894 54.4001 57.5884 54.4092 57.1193 54.4288C55.8778 54.4807 54.8293 53.5162 54.7774 52.2747C54.7255 51.0331 55.69 49.9846 56.9315 49.9327C57.4399 49.9115 57.8117 49.9001 58.3562 49.9001C62.0326 49.9001 65.4107 50.4138 68.4626 51.4799C71.03 52.3682 73.3015 53.627 75.2468 55.2731C76.8454 56.5907 78.1333 58.0696 79.056 59.7228L79.0738 59.7546L79.0905 59.787C79.7498 61.0639 79.9987 62.5672 79.9987 64.1537C79.9987 66.072 79.3442 67.7973 78.0637 69.2222C76.7844 70.6882 75.1035 71.4961 73.1471 71.4961H69.3467C68.1041 71.4961 67.0967 70.4887 67.0967 69.2461C67.0967 68.0034 68.1041 66.9961 69.3467 66.9961H73.1471C73.7394 66.9961 74.2078 66.7999 74.6795 66.2561L74.6945 66.2389L74.7098 66.222C75.2453 65.6293 75.4987 64.976 75.4987 64.1537C75.4987 63.0177 75.3176 62.3045 75.1065 61.8802C74.4982 60.8019 73.6054 59.7501 72.3748 58.7374L72.3494 58.7166L72.3496 58.7164C70.8656 57.4585 69.0886 56.4579 66.9884 55.7315L66.9815 55.7292L66.9815 55.7291C64.4831 54.856 61.6173 54.4001 58.3562 54.4001Z" fill="#464E53"/>
<path fill-rule="evenodd" clip-rule="evenodd" d="M51.3482 21.6884C53.0658 20.5827 54.971 20.0219 57.0138 20.0219C59.0565 20.0219 60.9618 20.5827 62.6793 21.6884C64.383 22.7452 65.7122 24.2018 66.6581 26.0069C67.6482 27.8258 68.1357 29.8112 68.1357 31.9222V36.2059C68.1357 38.2862 67.6439 40.2503 66.6581 42.0612C65.713 43.8649 64.3892 45.3338 62.6992 46.4268C60.9765 47.541 59.0644 48.1062 57.0138 48.1062C55.7711 48.1062 54.7638 47.0988 54.7638 45.8562C54.7638 44.6136 55.7711 43.6062 57.0138 43.6062C58.196 43.6062 59.2596 43.2923 60.2554 42.6482C61.2778 41.9869 62.0814 41.1047 62.6786 39.9602L62.6887 39.9409L62.6991 39.9219C63.3227 38.781 63.6357 37.5548 63.6357 36.2059V31.9222C63.6357 30.5241 63.3184 29.2792 62.6991 28.1463L62.6887 28.1272L62.6786 28.1079C62.0859 26.972 61.2944 26.1219 60.2953 25.5051L60.2752 25.4927L60.2554 25.4798C59.2596 24.8358 58.196 24.5219 57.0138 24.5219C55.8316 24.5219 54.768 24.8358 53.7722 25.4798L53.7523 25.4927L53.7322 25.5051C52.8876 26.0265 52.1824 26.7124 51.608 27.5878C50.9262 28.6267 49.5313 28.9163 48.4924 28.2345C47.4535 27.5527 47.1639 26.1579 47.8457 25.1189C48.7667 23.7154 49.9371 22.5636 51.3482 21.6884Z" fill="#464E53"/>
<path fill-rule="evenodd" clip-rule="evenodd" d="M51.8842 66.1027L51.8842 66.1027C49.2182 65.1711 46.1088 64.6666 42.5 64.6666C38.8912 64.6666 35.7818 65.1711 33.1158 66.1027L33.102 66.1075L33.102 66.1075C30.8642 66.8813 29.0124 67.9321 27.4858 69.226L27.4608 69.2472L27.4355 69.268C26.1799 70.3011 25.3157 71.3297 24.7417 72.3295C24.6633 72.5072 24.5 73.0214 24.5 74.0922C24.5 74.6159 24.6288 74.9394 24.8944 75.2574C25.0503 75.4231 25.1417 75.4666 25.1574 75.4738L25.1586 75.4744C25.1704 75.4799 25.2131 75.5 25.339 75.5H59.661C59.7339 75.5 59.7728 75.4929 59.7861 75.4901C59.7933 75.4885 59.797 75.4874 59.7979 75.487L59.8004 75.486C59.8006 75.4859 59.8156 75.4792 59.8467 75.4551C59.8789 75.4302 59.9354 75.381 60.0119 75.2927L60.0418 75.2583L60.0724 75.2245C60.3768 74.8877 60.5 74.5826 60.5 74.0922C60.5 73.0214 60.3367 72.5072 60.2583 72.3295C59.6843 71.3297 58.8201 70.3011 57.5645 69.268L57.5392 69.2472L57.5142 69.226C55.9876 67.9321 54.1358 66.8813 51.898 66.1075L51.8842 66.1027ZM64.2373 70.224C64.7458 71.2086 65 72.498 65 74.0922C65 75.6863 64.4703 77.0695 63.411 78.2417C62.3941 79.4139 61.1441 80 59.661 80H25.339C23.8559 80 22.5847 79.4139 21.5254 78.2417C20.5085 77.0695 20 75.6863 20 74.0922C20 72.498 20.2542 71.2086 20.7627 70.224C21.6525 68.6298 22.9237 67.1528 24.5763 65.7931C26.5678 64.1052 28.9195 62.7923 31.6314 61.8546C34.8517 60.7293 38.4746 60.1666 42.5 60.1666C46.5254 60.1666 50.1483 60.7293 53.3686 61.8546C56.0805 62.7923 58.4322 64.1052 60.4237 65.7931C62.0763 67.1528 63.3475 68.6298 64.2373 70.224Z" fill="#464E53"/>
<path fill-rule="evenodd" clip-rule="evenodd" d="M36.5461 30.5842C34.9131 31.5923 33.6112 32.9845 32.6402 34.7608C31.7134 36.537 31.25 38.4813 31.25 40.5936V45.7398C31.25 47.8041 31.7134 49.7243 32.6402 51.5006C33.6112 53.2768 34.9131 54.693 36.5461 55.7491C38.1791 56.8053 39.9665 57.3333 41.9084 57.3333C43.8503 57.3333 45.6377 56.8053 47.2707 55.7491C48.9036 54.693 50.1835 53.2768 51.1103 51.5006C52.0813 49.7243 52.5668 47.8041 52.5668 45.7398V40.5936C52.5668 38.4813 52.0813 36.537 51.1103 34.7608C50.1835 32.9845 48.9036 31.5923 47.2707 30.5842C45.6377 29.5281 43.8503 29 41.9084 29C39.9665 29 38.1791 29.5281 36.5461 30.5842ZM36.6099 49.3805C37.2338 50.5084 38.0226 51.3449 38.9899 51.9705C39.8959 52.5565 40.8349 52.8333 41.9084 52.8333C42.9818 52.8333 43.9208 52.5565 44.8268 51.9705C45.7862 51.35 46.5425 50.5271 47.1208 49.4189L47.1409 49.3803L47.1618 49.3421C47.7635 48.2413 48.0668 47.0653 48.0668 45.7398V40.5936C48.0668 39.2016 47.7549 38.0043 47.1618 36.9192L47.1409 36.881L47.1208 36.8425C46.5515 35.7514 45.8194 34.9768 44.9067 34.4133L44.8665 34.3885L44.8268 34.3628C43.9208 33.7768 42.9818 33.5 41.9084 33.5C40.8349 33.5 39.8959 33.7768 38.9899 34.3628L38.9503 34.3885L38.91 34.4133C37.9886 34.9821 37.2242 35.7707 36.6099 36.8808C36.0495 37.9695 35.75 39.1822 35.75 40.5936V45.7398C35.75 47.0864 36.0419 48.2776 36.6099 49.3805Z" fill="#464E53"/>
</svg>
