<svg width="106" height="109" viewBox="0 0 106 109" fill="none" xmlns="http://www.w3.org/2000/svg">
<g id="Group 444">
<path id="Union" fill-rule="evenodd" clip-rule="evenodd" d="M12.0832 41.3326L0.416504 52.9993H12.0832V41.3326ZM84.9998 52.9993V43.5922L85.6267 43.1502H86.8174L96.6665 52.9993H84.9998Z" fill="url(#paint0_linear_4025_49724)"/>
<g id="Group 443">
<path id="Subtract" fill-rule="evenodd" clip-rule="evenodd" d="M96.6665 52.9993H0.416504V99.1798C0.416504 104.281 4.52056 108.416 9.58317 108.416H87.4998C92.5625 108.416 96.6665 104.281 96.6665 99.1798V52.9993ZM36.6788 92.7484C35.7032 91.7713 35.7032 90.1873 36.6788 89.2103L45.1693 80.7075L36.6763 72.2021C35.7007 71.2251 35.7007 69.641 36.6763 68.664L36.8116 68.5285C37.7872 67.5515 39.369 67.5515 40.3446 68.5285L48.8376 77.0338L57.331 68.528C58.3066 67.551 59.8883 67.551 60.8639 68.528L60.9993 68.6636C61.9749 69.6406 61.9749 71.2246 60.9993 72.2017L52.5059 80.7075L60.9968 89.2107C61.9724 90.1877 61.9724 91.7718 60.9968 92.7488L60.8614 92.8844C59.8858 93.8614 58.3041 93.8614 57.3285 92.8844L48.8376 84.3811L40.3471 92.8839C39.3715 93.8609 37.7898 93.8609 36.8142 92.8839L36.6788 92.7484Z" fill="url(#paint1_linear_4025_49724)"/>
<g id="Group 442">
<path id="Union_2" fill-rule="evenodd" clip-rule="evenodd" d="M67.5 14.9206C67.5 11.7884 70.0721 9.24927 73.2449 9.24927H99.6717C102.845 9.24927 105.417 11.7884 105.417 14.9206V37.4786C105.417 40.6107 102.845 43.1498 99.6717 43.1498H85.6268L75.7943 50.0826V43.1498H73.2449C70.0721 43.1498 67.5 40.6107 67.5 37.4786V14.9206ZM98.5234 26.2632C98.5234 32.5276 93.3792 37.6058 87.0335 37.6058C80.6878 37.6058 75.5436 32.5276 75.5436 26.2632C75.5436 19.9989 80.6878 14.9206 87.0335 14.9206C93.3792 14.9206 98.5234 19.9989 98.5234 26.2632ZM88.0023 33.4797C84.3188 33.4797 81.2715 30.7909 80.7646 27.293H95.24C94.7331 30.7909 91.6857 33.4797 88.0023 33.4797ZM85.9852 23.1693C85.9852 24.3082 85.0499 25.2316 83.8961 25.2316C82.7424 25.2316 81.807 24.3082 81.807 23.1693C81.807 22.0303 82.7424 21.107 83.8961 21.107C85.0499 21.107 85.9852 22.0303 85.9852 23.1693ZM90.1526 22.1383C89.5832 22.1383 89.1215 22.5999 89.1215 23.1694C89.1215 23.7389 89.5832 24.2006 90.1526 24.2006H93.313C93.8825 24.2006 94.3442 23.7389 94.3442 23.1694C94.3442 22.5999 93.8825 22.1383 93.313 22.1383H90.1526Z" fill="url(#paint2_linear_4025_49724)"/>
</g>
<path id="Subtract_2" fill-rule="evenodd" clip-rule="evenodd" d="M12.083 9.63044C12.083 4.58784 16.2954 0.5 21.4916 0.5H75.5911C80.6557 0.5 84.7857 4.38345 84.9916 9.24929H73.2446C70.0718 9.24929 67.4997 11.7884 67.4997 14.9206V37.4786C67.4997 40.6107 70.0718 43.1499 73.2446 43.1499H75.7939V50.0826L84.9997 43.5918V53H12.083V9.63044ZM22.5534 17.4871C22.5534 16.3825 23.4488 15.4871 24.5534 15.4871H58.5969C59.7015 15.4871 60.5969 16.3825 60.5969 17.4871V18.0984C60.5969 19.203 59.7015 20.0984 58.5969 20.0984H24.5534C23.4488 20.0984 22.5534 19.203 22.5534 18.0984V17.4871ZM24.5534 28.1683C23.4488 28.1683 22.5534 29.0637 22.5534 30.1683V30.7796C22.5534 31.8842 23.4488 32.7796 24.5534 32.7796H58.1819C59.2865 32.7796 60.1819 31.8842 60.1819 30.7796V30.1683C60.1819 29.0637 59.2865 28.1683 58.1819 28.1683H24.5534ZM22.5534 42.8495C22.5534 41.745 23.4488 40.8495 24.5534 40.8495H47.1147C48.2193 40.8495 49.1147 41.745 49.1147 42.8495V43.4609C49.1147 44.5654 48.2193 45.4609 47.1147 45.4609H24.5534C23.4488 45.4609 22.5534 44.5654 22.5534 43.4609V42.8495Z" fill="url(#paint3_linear_4025_49724)"/>
</g>
</g>
<defs>
<linearGradient id="paint0_linear_4025_49724" x1="6.75744" y1="32.3396" x2="6.75744" y2="52.9993" gradientUnits="userSpaceOnUse">
<stop stop-color="#4D4D4D" stop-opacity="0.25"/>
<stop offset="1" stop-color="#808080" stop-opacity="0.2"/>
</linearGradient>
<linearGradient id="paint1_linear_4025_49724" x1="48.8356" y1="52.9993" x2="48.8356" y2="108.416" gradientUnits="userSpaceOnUse">
<stop stop-color="#7F7F7F" stop-opacity="0.12"/>
<stop offset="1" stop-color="#999999" stop-opacity="0.1"/>
</linearGradient>
<linearGradient id="paint2_linear_4025_49724" x1="86.4583" y1="9.24927" x2="86.9268" y2="57.4554" gradientUnits="userSpaceOnUse">
<stop stop-color="#7F7F7F" stop-opacity="0.25"/>
<stop offset="1" stop-color="#ADADAD" stop-opacity="0.2"/>
</linearGradient>
<linearGradient id="paint3_linear_4025_49724" x1="47.8209" y1="0.5" x2="47.8209" y2="53.5304" gradientUnits="userSpaceOnUse">
<stop stop-color="#7F7F7F" stop-opacity="0.08"/>
<stop offset="1" stop-color="#ADADAD" stop-opacity="0.06"/>
</linearGradient>
</defs>
</svg>
