<svg width="32" height="32" viewBox="0 0 32 32" fill="none" xmlns="http://www.w3.org/2000/svg">
<g id="icons/trash">
<path id="Union" fill-rule="evenodd" clip-rule="evenodd" d="M14.6667 2.66699C13.5622 2.66699 12.6667 3.56242 12.6667 4.66699V5.33366H19.3334V4.66699C19.3334 3.56242 18.438 2.66699 17.3334 2.66699H14.6667ZM2.66675 8.00033C2.66675 7.26395 3.33003 6.66699 4.14823 6.66699H27.8519C28.6701 6.66699 29.3334 7.26395 29.3334 8.00033C29.3334 8.73671 28.6701 9.33366 27.8519 9.33366H25.2858L24.6869 26.0718C24.6484 27.1479 23.7649 28.0003 22.6881 28.0003H9.36824C8.2939 28.0003 7.41149 27.1516 7.36975 26.078L6.7187 9.33366H4.14823C3.33003 9.33366 2.66675 8.73671 2.66675 8.00033ZM12.1528 22.4748L11.8493 12.8108C11.832 12.2587 12.2653 11.7939 12.8171 11.7725C13.369 11.751 13.8305 12.1812 13.8478 12.7332L14.1513 22.3972C14.1687 22.9492 13.7353 23.4141 13.1835 23.4355C12.6316 23.4569 12.1702 23.0268 12.1528 22.4748ZM18.1527 12.7332L17.8492 22.3972C17.8319 22.9492 18.2652 23.4141 18.817 23.4355C19.3689 23.4569 19.8304 23.0268 19.8477 22.4748L20.1512 12.8108C20.1686 12.2587 19.7352 11.7939 19.1834 11.7725C18.6315 11.751 18.1701 12.1812 18.1527 12.7332Z" fill="#464E53"/>
</g>
</svg>
