<svg width="22" height="22" viewBox="0 0 22 22" fill="none" xmlns="http://www.w3.org/2000/svg">
<g id="icons/person_double_fill">
<path id="Union" fill-rule="evenodd" clip-rule="evenodd" d="M18.5353 17.4166H16.5895C16.5331 17.158 16.4483 16.9084 16.3276 16.6747L16.3195 16.6589L16.3108 16.6433C15.9628 16.0198 15.4803 15.4679 14.8901 14.9813C14.1697 14.3721 13.3316 13.9088 12.3905 13.5831C12.0378 13.46 11.674 13.3572 11.2993 13.2741C11.7102 12.9108 12.0477 12.476 12.3096 11.9767C12.416 11.781 12.5076 11.5807 12.5844 11.3761C12.8154 11.363 13.0512 11.3564 13.2916 11.3564C14.5216 11.3564 15.6286 11.5283 16.6126 11.8722C17.4412 12.1587 18.1598 12.5598 18.7683 13.0756C19.2732 13.4911 19.6617 13.9424 19.9336 14.4295C20.0889 14.7303 20.1666 15.1243 20.1666 15.6114C20.1666 16.0985 20.0048 16.5212 19.6811 16.8793C19.3704 17.2375 18.9884 17.4166 18.5353 17.4166ZM13.1108 10.4907C13.0135 10.4907 12.9175 10.4863 12.8227 10.4776C12.8638 10.2228 12.8843 9.96274 12.8843 9.69817V8.12572C12.8843 7.3078 12.6951 6.53431 12.3095 5.82518C11.941 5.12273 11.421 4.55179 10.7537 4.13739C10.5646 4.01578 10.3695 3.91092 10.1689 3.82299C10.2028 3.74549 10.2395 3.66899 10.2789 3.59349C10.5756 3.05075 10.9734 2.62536 11.4724 2.31732C11.9713 1.99461 12.5175 1.83325 13.1108 1.83325C13.7042 1.83325 14.2504 1.99461 14.7493 2.31732C15.2483 2.62536 15.6393 3.05075 15.9225 3.59349C16.2192 4.13623 16.3676 4.73031 16.3676 5.37573V6.94818C16.3676 7.57894 16.2192 8.16568 15.9225 8.70842C15.6393 9.25116 15.2483 9.68388 14.7493 10.0066C14.2504 10.3293 13.7042 10.4907 13.1108 10.4907ZM5.69563 11.4584C5.41244 10.9157 5.27084 10.3289 5.27084 9.69818V8.12573C5.27084 7.48031 5.41244 6.88623 5.69563 6.34349C5.99231 5.80075 6.39013 5.37536 6.88909 5.06732C7.38805 4.74461 7.93421 4.58325 8.52757 4.58325C9.12093 4.58325 9.66709 4.74461 10.166 5.06732C10.665 5.37536 11.0561 5.80075 11.3393 6.34349C11.636 6.88623 11.7843 7.48031 11.7843 8.12573V9.69818C11.7843 10.3289 11.636 10.9157 11.3393 11.4584C11.0561 12.0012 10.665 12.4339 10.166 12.7566C9.66709 13.0793 9.12093 13.2407 8.52757 13.2407C7.93421 13.2407 7.38805 13.0793 6.88909 12.7566C6.39013 12.4339 5.99231 12.0012 5.69563 11.4584ZM12.0293 14.6222C11.0453 14.2783 9.93833 14.1064 8.70834 14.1064C7.47835 14.1064 6.37136 14.2783 5.38737 14.6222C4.55874 14.9087 3.84017 15.3098 3.23165 15.8256C2.72671 16.2411 2.33829 16.6924 2.06639 17.1795C1.91103 17.4803 1.83334 17.8743 1.83334 18.3614C1.83334 18.8485 1.98871 19.2712 2.29945 19.6293C2.62313 19.9875 3.01155 20.1666 3.4647 20.1666H13.952C14.4051 20.1666 14.7871 19.9875 15.0978 19.6293C15.4215 19.2712 15.5833 18.8485 15.5833 18.3614C15.5833 17.8743 15.5057 17.4803 15.3503 17.1795C15.0784 16.6924 14.69 16.2411 14.185 15.8256C13.5765 15.3098 12.8579 14.9087 12.0293 14.6222Z" fill="#464E53"/>
</g>
</svg>
