<svg width="16" height="16" viewBox="0 0 16 16" fill="none" xmlns="http://www.w3.org/2000/svg">
<g id="icons/slash_in_rectangle">
<path id="Rectangle 78 (Stroke)" fill-rule="evenodd" clip-rule="evenodd" d="M4.50008 3.66602C4.03984 3.66602 3.66675 4.03911 3.66675 4.49935V11.4993C3.66675 11.9596 4.03984 12.3327 4.50008 12.3327H11.5001C11.9603 12.3327 12.3334 11.9596 12.3334 11.4993V7.16602C12.3334 6.88987 12.5573 6.66602 12.8334 6.66602C13.1096 6.66602 13.3334 6.88987 13.3334 7.16602V11.4993C13.3334 12.5119 12.5126 13.3327 11.5001 13.3327H4.50008C3.48756 13.3327 2.66675 12.5119 2.66675 11.4993V4.49935C2.66675 3.48683 3.48756 2.66602 4.50008 2.66602H8.83341C9.10956 2.66602 9.33341 2.88987 9.33341 3.16602C9.33341 3.44216 9.10956 3.66602 8.83341 3.66602H4.50008Z" fill="#5270AD"/>
<path id="Line 45 (Stroke)" fill-rule="evenodd" clip-rule="evenodd" d="M13.848 2.14514C14.0433 2.3404 14.0433 2.65698 13.848 2.85224L6.70703 10.0037C6.51176 10.1989 6.19518 10.1989 5.99992 10.0037C5.80466 9.80842 5.80466 9.49184 5.99992 9.29658L13.1409 2.14514C13.3362 1.94987 13.6528 1.94987 13.848 2.14514Z" fill="#5270AD"/>
</g>
</svg>
