<svg width="20" height="20" viewBox="0 0 20 20" fill="none" xmlns="http://www.w3.org/2000/svg">
<g id="icons/bell_slash">
<path id="Subtract" fill-rule="evenodd" clip-rule="evenodd" d="M10 1.66602C9.53976 1.66602 9.16667 2.03911 9.16667 2.49935V3.38704C6.32309 3.76663 4.58333 6.08401 4.58333 8.74935V11.5125C4.58333 12.3532 4.17762 13.1423 3.49383 13.6315L3.19444 13.8456C2.7586 14.1574 2.5 14.6603 2.5 15.1962V15.3451C2.5 15.3755 2.50278 15.4053 2.50811 15.4342L13.4728 4.46966C12.7603 3.91565 11.8702 3.52425 10.8333 3.38679V2.49935C10.8333 2.03911 10.4602 1.66602 10 1.66602ZM14.0874 5.03353C14.0874 5.03353 14.0874 5.03354 14.0874 5.03355L3.28818 15.8327H3.28813L14.0874 5.03353ZM6.23442 15.8327L15.1796 6.88765C15.3355 7.36588 15.4167 7.86433 15.4167 8.36399V11.5125C15.4167 12.3532 15.8224 13.1423 16.5062 13.6315L16.8056 13.8456C17.2414 14.1574 17.5 14.6603 17.5 15.1962V15.3451C17.5 15.6144 17.2817 15.8327 17.0124 15.8327H6.23442ZM10.4246 18.3327C11.3451 18.3327 12.0913 17.5865 12.0913 16.666H7.90873C7.90873 17.5865 8.65493 18.3327 9.5754 18.3327H10.4246Z" fill="#919BA1"/>
<path id="Line 20 (Stroke)" fill-rule="evenodd" clip-rule="evenodd" d="M2.69285 17.3131C2.44877 17.069 2.44877 16.6732 2.69285 16.4292L16.4352 2.68693C16.6793 2.44285 17.075 2.44285 17.3191 2.68693C17.5632 2.93101 17.5632 3.32673 17.3191 3.57081L3.57673 17.3131C3.33266 17.5571 2.93693 17.5571 2.69285 17.3131Z" fill="#919BA1"/>
</g>
</svg>
