<svg width="24" height="24" viewBox="0 0 24 24" fill="none" xmlns="http://www.w3.org/2000/svg">
<path fill-rule="evenodd" clip-rule="evenodd" d="M11.9998 3C9.51447 3 7.49976 5.01472 7.49976 7.5V11.75C7.49976 14.2353 9.51447 16.25 11.9998 16.25C14.485 16.25 16.4998 14.2353 16.4998 11.75V7.5C16.4998 5.01472 14.485 3 11.9998 3ZM11.9998 9.0199C12.6901 9.0199 13.2498 8.46025 13.2498 7.7699C13.2498 7.07954 12.6901 6.5199 11.9998 6.5199C11.3094 6.5199 10.7498 7.07954 10.7498 7.7699C10.7498 8.46025 11.3094 9.0199 11.9998 9.0199Z" fill="#F9FAFA"/>
<path fill-rule="evenodd" clip-rule="evenodd" d="M19.2563 12.2033C19.2563 11.7615 18.8981 11.4033 18.4563 11.4033C18.0145 11.4033 17.6563 11.7615 17.6563 12.2033C17.6563 15.2207 15.2102 17.6667 12.1929 17.6667H11.7961C8.78452 17.6667 6.34316 15.2253 6.34316 12.2138C6.34316 11.772 5.98499 11.4138 5.54316 11.4138C5.10134 11.4138 4.74316 11.772 4.74316 12.2138C4.74316 15.9081 7.5836 18.9391 11.1997 19.2418V20.2004C11.1997 20.6422 11.5579 21.0004 11.9997 21.0004C12.4415 21.0004 12.7997 20.6422 12.7997 20.2004V19.241C16.4166 18.9333 19.2563 15.8999 19.2563 12.2033Z" fill="#F9FAFA"/>
</svg>
