<svg width="16" height="16" viewBox="0 0 16 16" fill="none" xmlns="http://www.w3.org/2000/svg">
<g id="icons/doc">
<path id="Subtract" fill-rule="evenodd" clip-rule="evenodd" d="M4.19031 1.33398C3.34874 1.33398 2.6665 2.00556 2.6665 2.83398V13.1673C2.6665 13.9957 3.34874 14.6673 4.19031 14.6673H11.8094C12.6509 14.6673 13.3332 13.9957 13.3332 13.1673V4.9553C13.3332 4.55748 13.1726 4.17595 12.8869 3.89465L10.7319 1.77332C10.4461 1.49202 10.0585 1.33398 9.65437 1.33398H4.19031ZM5.1665 4.00065C4.89036 4.00065 4.6665 4.22451 4.6665 4.50065C4.6665 4.77679 4.89036 5.00065 5.1665 5.00065H8.1665C8.44265 5.00065 8.6665 4.77679 8.6665 4.50065C8.6665 4.22451 8.44265 4.00065 8.1665 4.00065H5.1665ZM4.6665 7.50065C4.6665 7.22451 4.89036 7.00065 5.1665 7.00065H10.8332C11.1093 7.00065 11.3332 7.22451 11.3332 7.50065C11.3332 7.77679 11.1093 8.00065 10.8332 8.00065H5.1665C4.89036 8.00065 4.6665 7.77679 4.6665 7.50065ZM5.1665 10.0007C4.89036 10.0007 4.6665 10.2245 4.6665 10.5007C4.6665 10.7768 4.89036 11.0007 5.1665 11.0007H10.8332C11.1093 11.0007 11.3332 10.7768 11.3332 10.5007C11.3332 10.2245 11.1093 10.0007 10.8332 10.0007H5.1665Z" fill="#75828A"/>
</g>
</svg>
