<svg width="18" height="18" viewBox="0 0 18 18" fill="none" xmlns="http://www.w3.org/2000/svg">
<g id="icons/person_single_fill">
<path id="Union" fill-rule="evenodd" clip-rule="evenodd" d="M6 6.68112C6 7.22754 6.12358 7.73585 6.37073 8.20603C6.62965 8.67621 6.97684 9.05108 7.41229 9.33065C7.84775 9.61022 8.3244 9.75 8.84224 9.75C9.36008 9.75 9.83672 9.61022 10.2722 9.33065C10.7076 9.05108 11.0489 8.67621 11.2961 8.20603C11.555 7.73585 11.6845 7.22754 11.6845 6.68112V5.31888C11.6845 4.75975 11.555 4.24509 11.2961 3.77491C11.0489 3.30473 10.7076 2.93621 10.2722 2.66935C9.83672 2.38978 9.36008 2.25 8.84224 2.25C8.3244 2.25 7.84775 2.38978 7.41229 2.66935C6.97684 2.93621 6.62965 3.30473 6.37073 3.77491C6.12358 4.24509 6 4.75975 6 5.31888V6.68112ZM9 10.5C10.0734 10.5 11.0395 10.6489 11.8983 10.9468C12.6215 11.195 13.2486 11.5426 13.7797 11.9894C14.2203 12.3493 14.5593 12.7402 14.7966 13.1622C14.9322 13.4229 15 13.7642 15 14.1862C15 14.6082 14.8588 14.9743 14.5763 15.2846C14.3051 15.5949 13.9718 15.75 13.5763 15.75H4.42373C4.02825 15.75 3.68927 15.5949 3.40678 15.2846C3.13559 14.9743 3 14.6082 3 14.1862C3 13.7642 3.0678 13.4229 3.20339 13.1622C3.44068 12.7402 3.77966 12.3493 4.22034 11.9894C4.75141 11.5426 5.37853 11.195 6.1017 10.9468C6.96045 10.6489 7.92655 10.5 9 10.5Z" fill="#75828A"/>
</g>
</svg>
