<svg width="24" height="24" viewBox="0 0 24 24" fill="none" xmlns="http://www.w3.org/2000/svg">
<g id="icons/camera_fill">
<path id="Union" fill-rule="evenodd" clip-rule="evenodd" d="M2 9.2049C2 8.1751 2.78197 7.31363 3.80697 7.21423L6.87919 6.91632C7.25914 6.87948 7.58497 6.62954 7.719 6.27211L8.01334 5.48721C8.30607 4.7066 9.05231 4.18945 9.886 4.18945H14.114C14.9477 4.18945 15.6939 4.7066 15.9867 5.48721L16.281 6.27211C16.415 6.62954 16.7409 6.87948 17.1208 6.91632L20.193 7.21423C21.218 7.31363 22 8.17509 22 9.2049V18.1895C22 19.294 21.1046 20.1895 20 20.1895H4C2.89543 20.1895 2 19.294 2 18.1895V9.2049ZM12 16.7239C13.933 16.7239 15.5 15.1569 15.5 13.2239C15.5 11.2909 13.933 9.72394 12 9.72394C10.067 9.72394 8.5 11.2909 8.5 13.2239C8.5 15.1569 10.067 16.7239 12 16.7239ZM12 18.2239C14.7614 18.2239 17 15.9854 17 13.2239C17 10.4625 14.7614 8.22394 12 8.22394C9.23858 8.22394 7 10.4625 7 13.2239C7 15.9854 9.23858 18.2239 12 18.2239ZM5.51004 4.44543C5.92095 4.39321 6.29639 4.68398 6.34861 5.09489C6.40082 5.5058 6.11005 5.88124 5.69914 5.93346L4.32914 6.10756C3.91823 6.15978 3.54279 5.869 3.49057 5.45809C3.43835 5.04718 3.72913 4.67174 4.14004 4.61952L5.51004 4.44543Z" fill="#009DFF"/>
</g>
</svg>
