<svg width="20" height="20" viewBox="0 0 20 20" fill="none" xmlns="http://www.w3.org/2000/svg">
<g id="icons/xmark_in_circle_fill">
<path id="Union" fill-rule="evenodd" clip-rule="evenodd" d="M18.3332 9.8431C18.3332 14.4455 14.6022 18.1764 9.99984 18.1764C5.39746 18.1764 1.6665 14.4455 1.6665 9.8431C1.6665 5.24073 5.39746 1.50977 9.99984 1.50977C14.6022 1.50977 18.3332 5.24073 18.3332 9.8431ZM6.22456 6.06782C6.46864 5.82375 6.86437 5.82375 7.10845 6.06782L9.99984 8.95922L12.8912 6.06782C13.1353 5.82375 13.531 5.82375 13.7751 6.06782C14.0192 6.3119 14.0192 6.70763 13.7751 6.95171L10.8837 9.8431L13.7751 12.7345C14.0192 12.9786 14.0192 13.3743 13.7751 13.6184C13.531 13.8625 13.1353 13.8625 12.8912 13.6184L9.99984 10.727L7.10845 13.6184C6.86437 13.8625 6.46864 13.8625 6.22456 13.6184C5.98048 13.3743 5.98048 12.9786 6.22456 12.7345L9.11595 9.8431L6.22456 6.95171C5.98048 6.70763 5.98048 6.3119 6.22456 6.06782Z" fill="#464E53"/>
</g>
</svg>
