<svg width="28" height="28" viewBox="0 0 28 28" fill="none" xmlns="http://www.w3.org/2000/svg">
<g id="icons/trash">
<path id="Union" fill-rule="evenodd" clip-rule="evenodd" d="M13.0833 2.33337C11.9787 2.33337 11.0833 3.2288 11.0833 4.33337V4.66671H16.9166V4.33337C16.9166 3.2288 16.0212 2.33337 14.9166 2.33337H13.0833ZM2.33325 7.00004C2.33325 6.35571 2.91362 5.83337 3.62955 5.83337H24.3703C25.0862 5.83337 25.6666 6.35571 25.6666 7.00004C25.6666 7.64437 25.0862 8.16671 24.3703 8.16671H22.1249L21.6095 22.5716C21.571 23.6476 20.6875 24.5 19.6108 24.5H8.43752C7.36318 24.5 6.48077 23.6513 6.43903 22.5777L5.87871 8.16671H3.62955C2.91362 8.16671 2.33325 7.64437 2.33325 7.00004ZM10.6336 19.6652L10.368 11.2092C10.3528 10.7262 10.732 10.3194 11.2149 10.3007C11.6977 10.2819 12.1015 10.6583 12.1167 11.1413L12.3822 19.5973C12.3974 20.0803 12.0183 20.4871 11.5354 20.5058C11.0525 20.5246 10.6487 20.1482 10.6336 19.6652ZM15.8835 11.1413L15.6179 19.5973C15.6027 20.0803 15.9819 20.4871 16.4648 20.5058C16.9476 20.5246 17.3514 20.1482 17.3666 19.6652L17.6322 11.2092C17.6473 10.7262 17.2682 10.3194 16.7853 10.3007C16.3024 10.2819 15.8986 10.6583 15.8835 11.1413Z" fill="#F9FAFA"/>
</g>
</svg>
