<svg width="28" height="28" viewBox="0 0 28 28" fill="none" xmlns="http://www.w3.org/2000/svg">
<path fill-rule="evenodd" clip-rule="evenodd" d="M4.66675 4.375C4.66675 3.89175 5.0585 3.5 5.54175 3.5L22.4584 3.5C22.9417 3.5 23.3334 3.89175 23.3334 4.375C23.3334 4.85825 22.9417 5.25 22.4584 5.25L5.54175 5.25C5.0585 5.25 4.66675 4.85825 4.66675 4.375Z" fill="#F9FAFA"/>
<path d="M13.1554 22.3545L6.44108 24.4222C5.26086 24.7857 4.23737 23.5446 4.84999 22.4928L12.803 8.83891C13.3247 7.94314 14.6443 7.94238 15.1671 8.83755L23.1494 22.5045C23.7635 23.556 22.7406 24.7985 21.5598 24.4355L14.7885 22.3541C14.2569 22.1907 13.6869 22.1909 13.1554 22.3545Z" fill="#F9FAFA"/>
</svg>
