<svg width="23" height="22" viewBox="0 0 23 22" fill="none" xmlns="http://www.w3.org/2000/svg">
<g id="icons/magnifier">
<path id="Union" fill-rule="evenodd" clip-rule="evenodd" d="M18.375 11C18.375 14.797 15.297 17.875 11.5 17.875C7.70304 17.875 4.625 14.797 4.625 11C4.625 7.20304 7.70304 4.125 11.5 4.125C15.297 4.125 18.375 7.20304 18.375 11ZM16.8273 17.2996C15.39 18.5163 13.5307 19.25 11.5 19.25C6.94365 19.25 3.25 15.5563 3.25 11C3.25 6.44365 6.94365 2.75 11.5 2.75C16.0563 2.75 19.75 6.44365 19.75 11C19.75 13.0307 19.0163 14.89 17.7996 16.3274L20.4652 18.993C20.7337 19.2615 20.7337 19.6968 20.4652 19.9653C20.1967 20.2338 19.7614 20.2338 19.4929 19.9653L16.8273 17.2996Z" fill="#75828A"/>
</g>
</svg>
