<svg width="14" height="14" viewBox="0 0 14 14" fill="none" xmlns="http://www.w3.org/2000/svg">
<g id="Group 609">
<path id="Ellipse 219 (Stroke)" fill-rule="evenodd" clip-rule="evenodd" d="M6.90495 0.982159C7.10145 0.788142 7.42004 0.788142 7.61654 0.982159C10.9827 4.30579 10.9827 9.69446 7.61654 13.0181C7.42004 13.2121 7.10145 13.2121 6.90495 13.0181C6.70845 12.8241 6.70845 12.5095 6.90495 12.3155C9.87809 9.3799 9.87809 4.62035 6.90495 1.68476C6.70845 1.49074 6.70845 1.17618 6.90495 0.982159Z" fill="#75828A"/>
<path id="Ellipse 220 (Stroke)" fill-rule="evenodd" clip-rule="evenodd" d="M4.88639 2.9763C5.08289 2.78228 5.40148 2.78228 5.59798 2.9763C7.84899 5.19888 7.84899 8.80239 5.59798 11.025C5.40148 11.219 5.08289 11.219 4.88639 11.025C4.6899 10.8309 4.6899 10.5164 4.88639 10.3224C6.7444 8.48782 6.7444 5.51344 4.88639 3.6789C4.6899 3.48488 4.6899 3.17032 4.88639 2.9763Z" fill="#75828A"/>
<path id="Ellipse 221 (Stroke)" fill-rule="evenodd" clip-rule="evenodd" d="M2.6735 4.64622C2.87 4.4522 3.18859 4.4522 3.38509 4.64622C4.70222 5.94672 4.70222 8.05525 3.38509 9.35575C3.18859 9.54976 2.87 9.54976 2.6735 9.35575C2.477 9.16173 2.47701 8.84716 2.6735 8.65315C3.59764 7.74068 3.59764 6.26129 2.6735 5.34882C2.477 5.1548 2.477 4.84024 2.6735 4.64622Z" fill="#75828A"/>
</g>
</svg>
