<svg width="30" height="30" viewBox="0 0 30 30" fill="none" xmlns="http://www.w3.org/2000/svg">
<g id="icons/xmark_in_circle">
<path id="Union" fill-rule="evenodd" clip-rule="evenodd" d="M25.625 14.7637C25.625 20.6317 20.868 25.3887 15 25.3887C9.13197 25.3887 4.375 20.6317 4.375 14.7637C4.375 8.89565 9.13197 4.13867 15 4.13867C20.868 4.13867 25.625 8.89565 25.625 14.7637ZM27.5 14.7637C27.5 21.6672 21.9036 27.2637 15 27.2637C8.09644 27.2637 2.5 21.6672 2.5 14.7637C2.5 7.86011 8.09644 2.26367 15 2.26367C21.9036 2.26367 27.5 7.86011 27.5 14.7637ZM9.33709 9.10076C9.7032 8.73464 10.2968 8.73464 10.6629 9.10076L15 13.4378L19.3371 9.10076C19.7032 8.73464 20.2968 8.73464 20.6629 9.10076C21.029 9.46688 21.029 10.0605 20.6629 10.4266L16.3258 14.7637L20.6629 19.1008C21.029 19.4669 21.029 20.0605 20.6629 20.4266C20.2968 20.7927 19.7032 20.7927 19.3371 20.4266L15 16.0895L10.6629 20.4266C10.2968 20.7927 9.7032 20.7927 9.33709 20.4266C8.97097 20.0605 8.97097 19.4669 9.33709 19.1008L13.6742 14.7637L9.33709 10.4266C8.97097 10.0605 8.97097 9.46688 9.33709 9.10076Z" fill="#464E53"/>
</g>
</svg>
