<svg width="16" height="16" viewBox="0 0 16 16" fill="none" xmlns="http://www.w3.org/2000/svg">
<g id="icons/triangle_in_rectangle">
<path id="Rectangle 825 (Stroke)" fill-rule="evenodd" clip-rule="evenodd" d="M13.3613 3.8125H2.69466C2.51057 3.8125 2.36133 3.96174 2.36133 4.14583V12.1458C2.36133 12.3299 2.51057 12.4792 2.69466 12.4792H13.3613C13.5454 12.4792 13.6947 12.3299 13.6947 12.1458V4.14583C13.6947 3.96174 13.5454 3.8125 13.3613 3.8125ZM2.69466 2.8125C1.95828 2.8125 1.36133 3.40945 1.36133 4.14583V12.1458C1.36133 12.8822 1.95828 13.4792 2.69466 13.4792H13.3613C14.0977 13.4792 14.6947 12.8822 14.6947 12.1458V4.14583C14.6947 3.40945 14.0977 2.8125 13.3613 2.8125H2.69466Z" fill="#919BA1"/>
<path id="Polygon 29" d="M10.3879 7.63241C10.7594 7.85163 10.7594 8.39967 10.3879 8.61889L6.83566 10.7152C6.46418 10.9344 5.99984 10.6604 5.99984 10.2219V6.02938C5.99984 5.59094 6.46418 5.31692 6.83566 5.53614L10.3879 7.63241Z" fill="#919BA1"/>
</g>
</svg>
