<svg width="32" height="32" viewBox="0 0 32 32" fill="none" xmlns="http://www.w3.org/2000/svg">
<g id="icons/slash_in_rectangle">
<path id="Rectangle 78 (Stroke)" fill-rule="evenodd" clip-rule="evenodd" d="M8.99992 7.33301C8.07944 7.33301 7.33325 8.0792 7.33325 8.99967V22.9997C7.33325 23.9201 8.07944 24.6663 8.99992 24.6663H22.9999C23.9204 24.6663 24.6666 23.9201 24.6666 22.9997V14.333C24.6666 13.7807 25.1143 13.333 25.6666 13.333C26.2189 13.333 26.6666 13.7807 26.6666 14.333V22.9997C26.6666 25.0247 25.025 26.6663 22.9999 26.6663H8.99992C6.97487 26.6663 5.33325 25.0247 5.33325 22.9997V8.99967C5.33325 6.97463 6.97487 5.33301 8.99992 5.33301H17.6666C18.2189 5.33301 18.6666 5.78072 18.6666 6.33301C18.6666 6.88529 18.2189 7.33301 17.6666 7.33301H8.99992Z" fill="#464E53" stroke="#464E53" stroke-width="0.5" stroke-linecap="round"/>
<path id="Line 45 (Stroke)" fill-rule="evenodd" clip-rule="evenodd" d="M27.6963 4.29027C28.0868 4.6808 28.0868 5.31396 27.6963 5.70449L13.4143 20.0074C13.0238 20.3979 12.3906 20.3979 12.0001 20.0074C11.6096 19.6168 11.6096 18.9837 12.0001 18.5932L26.2821 4.29027C26.6726 3.89975 27.3058 3.89975 27.6963 4.29027Z" fill="#464E53" stroke="#464E53" stroke-width="0.5" stroke-linecap="round"/>
</g>
</svg>
