<svg width="30" height="30" viewBox="0 0 30 30" fill="none" xmlns="http://www.w3.org/2000/svg">
<path fill-rule="evenodd" clip-rule="evenodd" d="M15 25.625C20.868 25.625 25.625 20.868 25.625 15C25.625 9.13197 20.868 4.375 15 4.375C9.13197 4.375 4.375 9.13197 4.375 15C4.375 20.868 9.13197 25.625 15 25.625ZM15 27.5C21.9036 27.5 27.5 21.9036 27.5 15C27.5 8.09644 21.9036 2.5 15 2.5C8.09644 2.5 2.5 8.09644 2.5 15C2.5 21.9036 8.09644 27.5 15 27.5Z" fill="#464E53"/>
<path fill-rule="evenodd" clip-rule="evenodd" d="M16.4149 7.25781C16.7834 6.89403 17.3807 6.89403 17.7491 7.25781C21.9631 11.4185 21.9631 18.1644 17.7491 22.3252C17.3807 22.689 16.7834 22.689 16.4149 22.3252C16.0465 21.9614 16.0465 21.3716 16.4149 21.0078C19.892 17.5746 19.892 12.0084 16.4149 8.57518C16.0465 8.2114 16.0465 7.62159 16.4149 7.25781Z" fill="#464E53"/>
<path fill-rule="evenodd" clip-rule="evenodd" d="M12.9808 9.67651C13.3493 9.31273 13.9466 9.31273 14.3151 9.67651C17.1761 12.5014 17.1761 17.0815 14.3151 19.9064C13.9466 20.2702 13.3493 20.2702 12.9808 19.9064C12.6124 19.5426 12.6124 18.9528 12.9808 18.589C15.105 16.4917 15.105 13.0912 12.9808 10.9939C12.6124 10.6301 12.6124 10.0403 12.9808 9.67651Z" fill="#464E53"/>
<path fill-rule="evenodd" clip-rule="evenodd" d="M9.45203 11.7021C9.82046 11.3384 10.4178 11.3384 10.7863 11.7021C12.5143 13.4083 12.5143 16.1747 10.7863 17.8809C10.4178 18.2446 9.82046 18.2446 9.45203 17.8809C9.08359 17.5171 9.08359 16.9273 9.45203 16.5635C10.4432 15.5848 10.4432 13.9982 9.45203 13.0195C9.08359 12.6557 9.08359 12.0659 9.45203 11.7021Z" fill="#464E53"/>
</svg>
