<svg width="28" height="28" viewBox="0 0 28 28" fill="none" xmlns="http://www.w3.org/2000/svg">
<g id="icons/bell">
<path id="Union" fill-rule="evenodd" clip-rule="evenodd" d="M12.8333 3.50004C12.8333 2.85571 13.3557 2.33337 14 2.33337C14.6443 2.33337 15.1667 2.85571 15.1667 3.50004V4.74246C19.1477 5.27023 21.5833 8.47208 21.5833 11.7105V16.1185C21.5833 17.2955 22.1513 18.4002 23.1086 19.085L23.5278 19.3848C24.138 19.8213 24.5 20.5254 24.5 21.2757V21.4841C24.5 21.8611 24.1944 22.1667 23.8174 22.1667H4.18257C3.8056 22.1667 3.5 21.8611 3.5 21.4841V21.2757C3.5 20.5254 3.86204 19.8213 4.47222 19.3848L4.89136 19.085C5.84867 18.4002 6.41667 17.2955 6.41667 16.1185V12.25C6.41667 8.51857 8.85232 5.27424 12.8333 4.74281V3.50004ZM16.9278 23.3334V23.6667C16.9278 24.7713 16.0323 25.6667 14.9278 25.6667H13.0722C11.9677 25.6667 11.0722 24.7713 11.0722 23.6667V23.3334H16.9278Z" fill="#F9FAFA"/>
</g>
</svg>
