<svg width="22" height="22" viewBox="0 0 22 22" fill="none" xmlns="http://www.w3.org/2000/svg">
<g id="icons/bubble_fill">
<path id="Subtract" fill-rule="evenodd" clip-rule="evenodd" d="M2.75 11C2.75 6.44365 6.44365 2.75 11 2.75C15.5563 2.75 19.25 6.44365 19.25 11C19.25 13.1243 18.4471 15.0612 17.1282 16.5235L17.9445 18.5643C18.0758 18.8927 17.834 19.25 17.4802 19.25H11C6.44365 19.25 2.75 15.5563 2.75 11ZM11 12.0312C11.5695 12.0312 12.0312 11.5695 12.0312 11C12.0312 10.4305 11.5695 9.96875 11 9.96875C10.4305 9.96875 9.96875 10.4305 9.96875 11C9.96875 11.5695 10.4305 12.0312 11 12.0312ZM7.90625 11C7.90625 11.5695 7.44454 12.0312 6.875 12.0312C6.30546 12.0312 5.84375 11.5695 5.84375 11C5.84375 10.4305 6.30546 9.96875 6.875 9.96875C7.44454 9.96875 7.90625 10.4305 7.90625 11ZM15.125 12.0312C15.6945 12.0312 16.1562 11.5695 16.1562 11C16.1562 10.4305 15.6945 9.96875 15.125 9.96875C14.5555 9.96875 14.0938 10.4305 14.0938 11C14.0938 11.5695 14.5555 12.0312 15.125 12.0312Z" fill="#464E53"/>
</g>
</svg>
