<svg width="28" height="28" viewBox="0 0 28 28" fill="none" xmlns="http://www.w3.org/2000/svg">
<g id="icons/bell_slash">
<path id="Subtract" fill-rule="evenodd" clip-rule="evenodd" d="M14 2.33337C13.3557 2.33337 12.8333 2.85571 12.8333 3.50004V4.74281C8.85232 5.27424 6.41667 8.51857 6.41667 12.25V16.1185C6.41667 17.2955 5.84867 18.4002 4.89136 19.085L4.47222 19.3848C3.86204 19.8213 3.5 20.5254 3.5 21.2757V21.4841C3.5 21.5267 3.5039 21.5684 3.51136 21.6088L18.8619 6.25848C17.8644 5.48286 16.6182 4.9349 15.1667 4.74246V3.50004C15.1667 2.85571 14.6443 2.33337 14 2.33337ZM19.7224 7.04789C19.7224 7.0479 19.7224 7.04791 19.7224 7.04792L4.60345 22.1667H4.60338L19.7224 7.04789ZM8.72819 22.1667L21.2514 9.64366C21.4697 10.3132 21.5833 11.011 21.5833 11.7105V16.1185C21.5833 17.2955 22.1513 18.4002 23.1086 19.085L23.5278 19.3848C24.138 19.8213 24.5 20.5254 24.5 21.2757V21.4841C24.5 21.8611 24.1944 22.1667 23.8174 22.1667H8.72819ZM16.9278 23.6667V23.3334H11.0722V23.6667C11.0722 24.7713 11.9677 25.6667 13.0722 25.6667H14.9278C16.0323 25.6667 16.9278 24.7713 16.9278 23.6667Z" fill="#F9FAFA"/>
<path id="Line 20 (Stroke)" fill-rule="evenodd" clip-rule="evenodd" d="M3.76999 24.2375C3.42828 23.8958 3.42828 23.3418 3.76999 23.0001L23.0093 3.76094C23.351 3.41924 23.9051 3.41924 24.2468 3.76094C24.5885 4.10265 24.5885 4.65667 24.2468 4.99838L5.00743 24.2375C4.66572 24.5792 4.1117 24.5792 3.76999 24.2375Z" fill="#F9FAFA"/>
</g>
</svg>
