<svg width="50" height="17" viewBox="0 0 50 17" fill="none" xmlns="http://www.w3.org/2000/svg">
<path d="M8.19697 4.384C6.96497 4.384 6.02097 4.76 5.36497 5.512C4.70897 6.264 4.38097 7.328 4.38097 8.704C4.38097 10.096 4.74097 11.168 5.46097 11.92C6.19697 12.672 7.18097 13.048 8.41297 13.048C9.06897 13.048 9.62097 12.96 10.069 12.784C10.533 12.608 10.973 12.408 11.389 12.184C11.661 12.408 11.869 12.68 12.013 13C12.173 13.304 12.253 13.664 12.253 14.08C12.253 14.736 11.885 15.296 11.149 15.76C10.429 16.208 9.32497 16.432 7.83697 16.432C6.76497 16.432 5.75697 16.28 4.81297 15.976C3.86897 15.672 3.04497 15.208 2.34097 14.584C1.63697 13.944 1.07697 13.144 0.660968 12.184C0.260968 11.208 0.0609683 10.048 0.0609683 8.704C0.0609683 7.456 0.252968 6.36 0.636968 5.416C1.03697 4.456 1.57297 3.648 2.24497 2.992C2.93297 2.336 3.73297 1.84 4.64497 1.504C5.55697 1.168 6.53297 1 7.57297 1C9.04497 1 10.181 1.24 10.981 1.72C11.797 2.2 12.205 2.816 12.205 3.568C12.205 3.984 12.101 4.344 11.893 4.648C11.685 4.952 11.445 5.192 11.173 5.368C10.757 5.096 10.309 4.864 9.82897 4.672C9.36497 4.48 8.82097 4.384 8.19697 4.384ZM25.7479 15.976C25.5879 16.024 25.3319 16.072 24.9799 16.12C24.6439 16.168 24.2919 16.192 23.9239 16.192C23.5719 16.192 23.2519 16.168 22.9639 16.12C22.6919 16.072 22.4599 15.976 22.2679 15.832C22.0759 15.688 21.9239 15.496 21.8119 15.256C21.7159 15 21.6679 14.672 21.6679 14.272V8.944C21.6679 8.288 21.4999 7.832 21.1639 7.576C20.8439 7.304 20.4439 7.168 19.9639 7.168C19.6439 7.168 19.3399 7.208 19.0519 7.288C18.7639 7.368 18.5319 7.464 18.3559 7.576V15.976C18.1959 16.024 17.9399 16.072 17.5879 16.12C17.2519 16.168 16.8999 16.192 16.5319 16.192C16.1799 16.192 15.8599 16.168 15.5719 16.12C15.2999 16.072 15.0679 15.976 14.8759 15.832C14.6839 15.688 14.5319 15.496 14.4199 15.256C14.3239 15 14.2759 14.672 14.2759 14.272V0.352C14.4519 0.319999 14.7079 0.279999 15.0439 0.232C15.3959 0.168 15.7479 0.136 16.0999 0.136C16.4519 0.136 16.7639 0.159999 17.0359 0.207999C17.3239 0.255999 17.5639 0.351999 17.7559 0.495999C17.9479 0.639999 18.0919 0.839999 18.1879 1.096C18.2999 1.336 18.3559 1.656 18.3559 2.056V4.408C18.5639 4.328 18.8759 4.24 19.2919 4.144C19.7239 4.032 20.1959 3.976 20.7079 3.976C22.2919 3.976 23.5239 4.376 24.4039 5.176C25.2999 5.96 25.7479 7.136 25.7479 8.704V15.976ZM33.307 13.408C33.579 13.408 33.875 13.384 34.195 13.336C34.531 13.272 34.779 13.192 34.939 13.096V11.176L33.211 11.32C32.763 11.352 32.395 11.448 32.107 11.608C31.819 11.768 31.675 12.008 31.675 12.328C31.675 12.648 31.795 12.912 32.035 13.12C32.291 13.312 32.715 13.408 33.307 13.408ZM33.115 3.976C33.979 3.976 34.763 4.064 35.467 4.24C36.187 4.416 36.795 4.688 37.291 5.056C37.803 5.408 38.195 5.864 38.467 6.424C38.739 6.968 38.875 7.616 38.875 8.368V13.744C38.875 14.16 38.755 14.504 38.515 14.776C38.291 15.032 38.019 15.256 37.699 15.448C36.659 16.072 35.195 16.384 33.307 16.384C32.459 16.384 31.691 16.304 31.003 16.144C30.331 15.984 29.747 15.744 29.251 15.424C28.771 15.104 28.395 14.696 28.123 14.2C27.867 13.704 27.739 13.128 27.739 12.472C27.739 11.368 28.067 10.52 28.723 9.928C29.379 9.336 30.395 8.968 31.771 8.824L34.915 8.488V8.32C34.915 7.856 34.707 7.528 34.291 7.336C33.891 7.128 33.307 7.024 32.539 7.024C31.931 7.024 31.339 7.088 30.763 7.216C30.187 7.344 29.667 7.504 29.203 7.696C28.995 7.552 28.819 7.336 28.675 7.048C28.531 6.744 28.459 6.432 28.459 6.112C28.459 5.696 28.555 5.368 28.747 5.128C28.955 4.872 29.267 4.656 29.683 4.48C30.147 4.304 30.691 4.176 31.315 4.096C31.955 4.016 32.555 3.976 33.115 3.976ZM45.4977 11.992C45.4977 12.408 45.6257 12.704 45.8817 12.88C46.1537 13.056 46.5297 13.144 47.0097 13.144C47.2497 13.144 47.4977 13.128 47.7537 13.096C48.0097 13.048 48.2337 12.992 48.4257 12.928C48.5697 13.104 48.6897 13.304 48.7857 13.528C48.8977 13.736 48.9537 13.992 48.9537 14.296C48.9537 14.904 48.7217 15.4 48.2577 15.784C47.8097 16.168 47.0097 16.36 45.8577 16.36C44.4497 16.36 43.3617 16.04 42.5937 15.4C41.8417 14.76 41.4657 13.72 41.4657 12.28V2.008C41.6417 1.96 41.8897 1.912 42.2097 1.864C42.5457 1.8 42.8977 1.768 43.2657 1.768C43.9697 1.768 44.5137 1.896 44.8977 2.152C45.2977 2.392 45.4977 2.912 45.4977 3.712V5.248H48.6417C48.7377 5.424 48.8257 5.648 48.9057 5.92C49.0017 6.176 49.0497 6.464 49.0497 6.784C49.0497 7.344 48.9217 7.752 48.6657 8.008C48.4257 8.248 48.0977 8.368 47.6817 8.368H45.4977V11.992Z" fill="#009DFF"/>
</svg>
