<svg width="24" height="24" viewBox="0 0 24 24" fill="none" xmlns="http://www.w3.org/2000/svg">
<g id="icons/img">
<path id="Rectangle 825 (Stroke)" fill-rule="evenodd" clip-rule="evenodd" d="M20.042 5.71875H4.04199C3.76585 5.71875 3.54199 5.94261 3.54199 6.21875V18.2188C3.54199 18.4949 3.76585 18.7188 4.04199 18.7188H20.042C20.3181 18.7188 20.542 18.4949 20.542 18.2188V6.21875C20.542 5.94261 20.3181 5.71875 20.042 5.71875ZM4.04199 4.21875C2.93742 4.21875 2.04199 5.11418 2.04199 6.21875V18.2188C2.04199 19.3233 2.93742 20.2188 4.04199 20.2188H20.042C21.1466 20.2188 22.042 19.3233 22.042 18.2188V6.21875C22.042 5.11418 21.1466 4.21875 20.042 4.21875H4.04199Z" fill="#009DFF"/>
<path id="Vector 12" d="M13.2094 11.906L6 19.1895H21V16.5024L16.6303 11.9361C15.6889 10.9524 14.1666 10.939 13.2094 11.906Z" fill="#009DFF"/>
<circle id="Ellipse 16" cx="7.75" cy="9.93945" r="1.75" fill="#009DFF"/>
</g>
</svg>
