<svg width="32" height="32" viewBox="0 0 32 32" fill="none" xmlns="http://www.w3.org/2000/svg">
<g id="icons/arrow_Uturn_anti_clockwise">
<g id="Union">
<path fill-rule="evenodd" clip-rule="evenodd" d="M18.3737 7.29304C18.7642 6.90252 18.7642 6.26935 18.3737 5.87883C17.9832 5.48831 17.35 5.48831 16.9595 5.87883L11.6261 11.2122C11.2356 11.6027 11.2356 12.2359 11.6261 12.6264L16.9595 17.9597C17.35 18.3502 17.9832 18.3502 18.3737 17.9597C18.7642 17.5692 18.7642 16.936 18.3737 16.5455L14.7475 12.9193H18.9999C22.1295 12.9193 24.6666 15.4563 24.6666 18.5859C24.6666 21.7155 22.1295 24.2526 18.9999 24.2526H6.33325C5.78097 24.2526 5.33325 24.7003 5.33325 25.2526C5.33325 25.8049 5.78097 26.2526 6.33325 26.2526H18.9999C23.2341 26.2526 26.6666 22.8201 26.6666 18.5859C26.6666 14.3518 23.2341 10.9193 18.9999 10.9193H14.7475L18.3737 7.29304Z" fill="#464E53"/>
<path d="M18.3737 5.87883L18.1969 6.05561L18.1969 6.05561L18.3737 5.87883ZM18.3737 7.29304L18.1969 7.11627L18.1969 7.11627L18.3737 7.29304ZM16.9595 5.87883L16.7827 5.70205L16.7827 5.70205L16.9595 5.87883ZM11.6261 11.2122L11.8029 11.3889L11.8029 11.3889L11.6261 11.2122ZM11.6261 12.6264L11.8029 12.4496L11.8029 12.4496L11.6261 12.6264ZM16.9595 17.9597L16.7827 18.1365L16.7827 18.1365L16.9595 17.9597ZM18.3737 17.9597L18.5505 18.1365L18.5505 18.1365L18.3737 17.9597ZM18.3737 16.5455L18.1969 16.7223L18.1969 16.7223L18.3737 16.5455ZM14.7475 12.9193V12.6693C14.6463 12.6693 14.5552 12.7302 14.5165 12.8236C14.4778 12.917 14.4992 13.0245 14.5707 13.096L14.7475 12.9193ZM14.7475 10.9193L14.5707 10.7425C14.4992 10.814 14.4778 10.9215 14.5165 11.0149C14.5552 11.1084 14.6463 11.1693 14.7475 11.1693V10.9193ZM18.1969 6.05561C18.4898 6.3485 18.4898 6.82337 18.1969 7.11627L18.5505 7.46982C19.0386 6.98167 19.0386 6.19021 18.5505 5.70205L18.1969 6.05561ZM17.1363 6.05561C17.4291 5.76271 17.904 5.76271 18.1969 6.05561L18.5505 5.70205C18.0623 5.2139 17.2709 5.2139 16.7827 5.70205L17.1363 6.05561ZM11.8029 11.3889L17.1363 6.05561L16.7827 5.70205L11.4494 11.0354L11.8029 11.3889ZM11.8029 12.4496C11.51 12.1567 11.51 11.6818 11.8029 11.3889L11.4494 11.0354C10.9612 11.5235 10.9612 12.315 11.4494 12.8032L11.8029 12.4496ZM17.1363 17.7829L11.8029 12.4496L11.4494 12.8032L16.7827 18.1365L17.1363 17.7829ZM18.1969 17.7829C17.904 18.0758 17.4291 18.0758 17.1363 17.7829L16.7827 18.1365C17.2709 18.6246 18.0623 18.6246 18.5505 18.1365L18.1969 17.7829ZM18.1969 16.7223C18.4898 17.0152 18.4898 17.49 18.1969 17.7829L18.5505 18.1365C19.0386 17.6483 19.0386 16.8569 18.5505 16.3687L18.1969 16.7223ZM14.5707 13.096L18.1969 16.7223L18.5505 16.3687L14.9242 12.7425L14.5707 13.096ZM18.9999 12.6693H14.7475V13.1693H18.9999V12.6693ZM24.9166 18.5859C24.9166 15.3183 22.2676 12.6693 18.9999 12.6693V13.1693C21.9915 13.1693 24.4166 15.5944 24.4166 18.5859H24.9166ZM18.9999 24.5026C22.2676 24.5026 24.9166 21.8536 24.9166 18.5859H24.4166C24.4166 21.5775 21.9915 24.0026 18.9999 24.0026V24.5026ZM6.33325 24.5026H18.9999V24.0026H6.33325V24.5026ZM5.58325 25.2526C5.58325 24.8384 5.91904 24.5026 6.33325 24.5026V24.0026C5.6429 24.0026 5.08325 24.5622 5.08325 25.2526H5.58325ZM6.33325 26.0026C5.91904 26.0026 5.58325 25.6668 5.58325 25.2526H5.08325C5.08325 25.943 5.6429 26.5026 6.33325 26.5026V26.0026ZM18.9999 26.0026H6.33325V26.5026H18.9999V26.0026ZM26.4166 18.5859C26.4166 22.682 23.096 26.0026 18.9999 26.0026V26.5026C23.3722 26.5026 26.9166 22.9582 26.9166 18.5859H26.4166ZM18.9999 11.1693C23.096 11.1693 26.4166 14.4898 26.4166 18.5859H26.9166C26.9166 14.2137 23.3722 10.6693 18.9999 10.6693V11.1693ZM14.7475 11.1693H18.9999V10.6693H14.7475V11.1693ZM18.1969 7.11627L14.5707 10.7425L14.9242 11.096L18.5505 7.46982L18.1969 7.11627Z" fill="#464E53"/>
</g>
</g>
</svg>
