<svg width="22" height="22" viewBox="0 0 22 22" fill="none" xmlns="http://www.w3.org/2000/svg">
<g id="icons/xmark_in_circle_fill">
<path id="Union" fill-rule="evenodd" clip-rule="evenodd" d="M20.1666 10.8267C20.1666 15.8893 16.0625 19.9934 10.9999 19.9934C5.93731 19.9934 1.83325 15.8893 1.83325 10.8267C1.83325 5.76409 5.93731 1.66003 10.9999 1.66003C16.0625 1.66003 20.1666 5.76409 20.1666 10.8267ZM6.84712 6.6739C7.1156 6.40541 7.5509 6.40541 7.81939 6.6739L10.9999 9.85443L14.1804 6.6739C14.4489 6.40541 14.8842 6.40541 15.1527 6.6739C15.4212 6.94238 15.4212 7.37768 15.1527 7.64617L11.9722 10.8267L15.1527 14.0072C15.4212 14.2757 15.4212 14.711 15.1527 14.9795C14.8842 15.248 14.4489 15.248 14.1804 14.9795L10.9999 11.799L7.81939 14.9795C7.5509 15.248 7.1156 15.248 6.84712 14.9795C6.57863 14.711 6.57863 14.2757 6.84712 14.0072L10.0276 10.8267L6.84712 7.64617C6.57863 7.37768 6.57863 6.94238 6.84712 6.6739Z" fill="#464E53"/>
</g>
</svg>
