<svg width="30" height="30" viewBox="0 0 30 30" fill="none" xmlns="http://www.w3.org/2000/svg">
<g id="icons/keyboard2">
<path id="Rectangle 666 (Stroke)" fill-rule="evenodd" clip-rule="evenodd" d="M21.25 5.38867H8.75C7.02411 5.38867 5.625 6.78778 5.625 8.51367V21.0137C5.625 22.7396 7.02411 24.1387 8.75 24.1387H21.25C22.9759 24.1387 24.375 22.7396 24.375 21.0137V8.51367C24.375 6.78778 22.9759 5.38867 21.25 5.38867ZM8.75 3.51367C5.98858 3.51367 3.75 5.75225 3.75 8.51367V21.0137C3.75 23.7751 5.98858 26.0137 8.75 26.0137H21.25C24.0114 26.0137 26.25 23.7751 26.25 21.0137V8.51367C26.25 5.75225 24.0114 3.51367 21.25 3.51367H8.75Z" fill="#464E53"/>
<rect id="Rectangle 684" x="19.4375" y="9.02539" width="3.125" height="3.125" rx="1" fill="#464E53"/>
<rect id="Rectangle 685" x="11.4377" y="9.02539" width="3.125" height="3.125" rx="1" fill="#464E53"/>
<rect id="Rectangle 686" x="7.43774" y="9.02539" width="3.125" height="3.125" rx="1" fill="#464E53"/>
<rect id="Rectangle 687" x="15.4376" y="9.02539" width="3.125" height="3.125" rx="1" fill="#464E53"/>
<rect id="Rectangle 673" x="19.4375" y="13.0703" width="3.125" height="3.125" rx="1" fill="#464E53"/>
<rect id="Rectangle 676" x="11.4377" y="13.0703" width="3.125" height="3.125" rx="1" fill="#464E53"/>
<rect id="Rectangle 683" x="10.5627" y="17.8496" width="8.87482" height="3.125" rx="1" fill="#464E53"/>
<rect id="Rectangle 682" x="7.43774" y="13.0703" width="3.125" height="3.125" rx="1" fill="#464E53"/>
<rect id="Rectangle 679" x="15.4376" y="13.0703" width="3.125" height="3.125" rx="1" fill="#464E53"/>
</g>
</svg>
