<svg width="32" height="32" viewBox="0 0 32 32" fill="none" xmlns="http://www.w3.org/2000/svg">
<g id="icons/doc_on_doc">
<path id="Rectangle 830 (Stroke)" fill-rule="evenodd" clip-rule="evenodd" d="M12.8667 6C12.7563 6 12.6667 6.08954 12.6667 6.2V23.1333C12.6667 23.2438 12.7563 23.3333 12.8667 23.3333H25.8001C25.9105 23.3333 26.0001 23.2438 26.0001 23.1333V10.3689C26.0001 10.2363 25.9474 10.1091 25.8536 10.0153L21.9848 6.14645C21.891 6.05268 21.7638 6 21.6312 6H12.8667ZM12.0001 4C11.2637 4 10.6667 4.59695 10.6667 5.33333V24C10.6667 24.7364 11.2637 25.3333 12.0001 25.3333H26.6667C27.4031 25.3333 28.0001 24.7364 28.0001 24V9.88562C28.0001 9.532 27.8596 9.19286 27.6096 8.94281L23.0573 4.39052C22.8072 4.14048 22.4681 4 22.1145 4H12.0001Z" fill="#464E53"/>
<path id="Rectangle 829" d="M4 9C4 8.44772 4.44772 8 5 8H15.5858C15.851 8 16.1054 8.10536 16.2929 8.29289L21.0404 13.0404C21.228 13.228 21.3333 13.4823 21.3333 13.7475V28.3333C21.3333 28.8856 20.8856 29.3333 20.3333 29.3333H5C4.44772 29.3333 4 28.8856 4 28.3333V9Z" fill="#464E53"/>
</g>
</svg>
