<svg width="30" height="30" viewBox="0 0 30 30" fill="none" xmlns="http://www.w3.org/2000/svg">
<g id="icons/face">
<path id="Ellipse 14 (Stroke) (Stroke) (Stroke)" fill-rule="evenodd" clip-rule="evenodd" d="M20.1653 17.2308C20.6439 17.4284 20.8717 17.9765 20.6742 18.4551C19.7561 20.6794 17.5644 22.2511 15.0007 22.2511C12.4378 22.2511 10.2468 20.6805 9.32814 18.4574C9.1304 17.9789 9.35802 17.4307 9.83655 17.2329C10.3151 17.0352 10.8633 17.2628 11.061 17.7413C11.7002 19.2882 13.2236 20.3761 15.0007 20.3761C16.7784 20.3761 18.3022 19.2874 18.941 17.7397C19.1385 17.2611 19.6867 17.0333 20.1653 17.2308Z" fill="#464E53"/>
<path id="Union" fill-rule="evenodd" clip-rule="evenodd" d="M19.8072 11.0893C19.8072 10.5567 19.3755 10.125 18.8429 10.125C18.3104 10.125 17.8787 10.5567 17.8787 11.0893V12.9939C17.8787 13.5264 18.3104 13.9582 18.8429 13.9582C19.3755 13.9582 19.8072 13.5264 19.8072 12.9939V11.0893ZM12.1229 11.0893C12.1229 10.5567 11.6912 10.125 11.1586 10.125C10.6261 10.125 10.1943 10.5567 10.1943 11.0893V12.9939C10.1943 13.5264 10.6261 13.9582 11.1586 13.9582C11.6912 13.9582 12.1229 13.5264 12.1229 12.9939L12.1229 11.0893Z" fill="#464E53"/>
<path id="Ellipse 294 (Stroke)" fill-rule="evenodd" clip-rule="evenodd" d="M15 25.625C20.868 25.625 25.625 20.868 25.625 15C25.625 9.13197 20.868 4.375 15 4.375C9.13197 4.375 4.375 9.13197 4.375 15C4.375 20.868 9.13197 25.625 15 25.625ZM15 27.5C21.9036 27.5 27.5 21.9036 27.5 15C27.5 8.09644 21.9036 2.5 15 2.5C8.09644 2.5 2.5 8.09644 2.5 15C2.5 21.9036 8.09644 27.5 15 27.5Z" fill="#464E53"/>
</g>
</svg>
