<svg width="22" height="22" viewBox="0 0 22 22" fill="none" xmlns="http://www.w3.org/2000/svg">
<g id="icons/person_add_fill">
<path id="Union" fill-rule="evenodd" clip-rule="evenodd" d="M16.7291 9.36823C16.7291 9.76313 17.0368 10.0833 17.4164 10.0833C17.7961 10.0833 18.1038 9.76313 18.1038 9.36823L18.1039 8.04825L19.4516 8.04825C19.8465 8.04825 20.1666 7.72812 20.1666 7.33323C20.1666 6.93833 19.8465 6.6182 19.4516 6.6182L18.104 6.61821L18.1041 5.29827C18.1041 4.90338 17.7963 4.58325 17.4167 4.58325C17.037 4.58325 16.7293 4.90338 16.7293 5.29827L16.7292 6.61822L15.3816 6.61823C14.9867 6.61823 14.6666 6.93835 14.6666 7.33325C14.6666 7.72814 14.9867 8.04827 15.3816 8.04827L16.7291 8.04826L16.7291 9.36823Z" fill="#464E53"/>
<path id="Union_2" fill-rule="evenodd" clip-rule="evenodd" d="M6.41667 8.16581C6.41667 8.83366 6.5677 9.45492 6.86978 10.0296C7.18623 10.6043 7.61058 11.0624 8.1428 11.4041C8.67502 11.7458 9.25759 11.9167 9.89051 11.9167C10.5234 11.9167 11.106 11.7458 11.6382 11.4041C12.1704 11.0624 12.5876 10.6043 12.8897 10.0296C13.2061 9.45492 13.3644 8.83366 13.3644 8.16581V6.50086C13.3644 5.81747 13.2061 5.18844 12.8897 4.61378C12.5876 4.03911 12.1704 3.5887 11.6382 3.26254C11.106 2.92085 10.5234 2.75 9.89051 2.75C9.25759 2.75 8.67502 2.92085 8.1428 3.26254C7.61058 3.5887 7.18623 4.03911 6.86978 4.61378C6.5677 5.18844 6.41667 5.81747 6.41667 6.50086V8.16581ZM10.0833 12.8333C11.3953 12.8333 12.5761 13.0154 13.6257 13.3794C14.5096 13.6828 15.2761 14.1076 15.9251 14.6537C16.4637 15.0936 16.8781 15.5714 17.1681 16.0872C17.3338 16.4057 17.4167 16.8229 17.4167 17.3387C17.4167 17.8544 17.244 18.3019 16.8988 18.6811C16.5673 19.0604 16.1599 19.25 15.6766 19.25H4.49011C4.00675 19.25 3.59244 19.0604 3.24718 18.6811C2.91573 18.3019 2.75 17.8544 2.75 17.3387C2.75 16.8229 2.83286 16.4057 2.99859 16.0872C3.28861 15.5714 3.70292 15.0936 4.24153 14.6537C4.89062 14.1076 5.65709 13.6828 6.54096 13.3794C7.59055 13.0154 8.77134 12.8333 10.0833 12.8333Z" fill="#464E53"/>
</g>
</svg>
