<svg width="28" height="28" viewBox="0 0 28 28" fill="none" xmlns="http://www.w3.org/2000/svg">
<path fill-rule="evenodd" clip-rule="evenodd" d="M4.66675 23.625C4.66675 23.1418 5.0585 22.75 5.54175 22.75L22.4584 22.75C22.9417 22.75 23.3334 23.1418 23.3334 23.625C23.3334 24.1083 22.9417 24.5 22.4584 24.5L5.54175 24.5C5.0585 24.5 4.66675 24.1082 4.66675 23.625Z" fill="#F9FAFA"/>
<path d="M14.8446 5.64545L21.5589 3.57776C22.7391 3.21431 23.7626 4.45544 23.15 5.50719L15.197 19.1611C14.6753 20.0569 13.3557 20.0576 12.8329 19.1624L4.85062 5.49546C4.23654 4.44405 5.25942 3.20149 6.44024 3.56446L13.2115 5.64587C13.7431 5.80928 14.3131 5.80913 14.8446 5.64545Z" fill="#F9FAFA"/>
</svg>
