<svg width="20" height="20" viewBox="0 0 20 20" fill="none" xmlns="http://www.w3.org/2000/svg">
<g id="icons/trash">
<path id="Union" fill-rule="evenodd" clip-rule="evenodd" d="M9.58342 1.66699C8.66294 1.66699 7.91675 2.41318 7.91675 3.33366H12.0834C12.0834 2.41318 11.3372 1.66699 10.4167 1.66699H9.58342ZM1.66675 5.00033C1.66675 4.54009 2.0813 4.16699 2.59267 4.16699H17.4075C17.9189 4.16699 18.3334 4.54009 18.3334 5.00033C18.3334 5.46056 17.9189 5.83366 17.4075 5.83366H15.8037L15.4552 15.5718C15.4167 16.6479 14.5332 17.5003 13.4565 17.5003H6.57659C5.50225 17.5003 4.61983 16.6516 4.57809 15.578L4.19922 5.83366H2.59267C2.0813 5.83366 1.66675 5.46056 1.66675 5.00033ZM7.59554 14.0469L7.40584 8.00685C7.395 7.66184 7.66583 7.3713 8.01075 7.35791C8.35567 7.34452 8.64406 7.61334 8.6549 7.95835L8.8446 13.9984C8.85544 14.3434 8.58461 14.6339 8.23969 14.6473C7.89478 14.6607 7.60638 14.3919 7.59554 14.0469ZM11.3455 7.95835L11.1558 13.9984C11.1449 14.3434 11.4158 14.6339 11.7607 14.6473C12.1056 14.6607 12.394 14.3919 12.4048 14.0469L12.5945 8.00685C12.6054 7.66184 12.3345 7.3713 11.9896 7.35791C11.6447 7.34452 11.3563 7.61334 11.3455 7.95835Z" fill="#75828A"/>
</g>
</svg>
