<svg width="40" height="40" viewBox="0 0 40 40" fill="none" xmlns="http://www.w3.org/2000/svg">
<rect width="40" height="40" rx="4" fill="#009DFF"/>
<path fill-rule="evenodd" clip-rule="evenodd" d="M29.5905 28.1673H27.1141C27.0423 27.8382 26.9344 27.5206 26.7808 27.2231L26.7704 27.203L26.7593 27.1832C26.3164 26.3896 25.7023 25.6872 24.9512 25.0678C24.0344 24.2925 22.9677 23.7029 21.7699 23.2884C21.321 23.1316 20.8579 23.0008 20.3811 22.8951C20.904 22.4327 21.3336 21.8792 21.6669 21.2438C21.8023 20.9947 21.9189 20.7398 22.0167 20.4794C22.3107 20.4627 22.6107 20.4544 22.9167 20.4544C24.4822 20.4544 25.8911 20.6732 27.1434 21.1108C28.198 21.4755 29.1126 21.986 29.8871 22.6424C30.5297 23.1712 31.0241 23.7456 31.3701 24.3655C31.5679 24.7485 31.6667 25.2499 31.6667 25.8698C31.6667 26.4898 31.4608 27.0277 31.0488 27.4835C30.6533 27.9394 30.1672 28.1673 29.5905 28.1673ZM22.6867 19.3525C22.5628 19.3525 22.4406 19.347 22.32 19.3359C22.3722 19.0116 22.3983 18.6806 22.3983 18.3439V16.3426C22.3983 15.3016 22.1576 14.3172 21.6668 13.4146C21.1978 12.5206 20.536 11.7939 19.6867 11.2665C19.446 11.1118 19.1977 10.9783 18.9424 10.8664C18.9856 10.7677 19.0322 10.6704 19.0824 10.5743C19.46 9.88353 19.9663 9.34212 20.6013 8.95007C21.2364 8.53935 21.9315 8.33398 22.6867 8.33398C23.4419 8.33398 24.137 8.53935 24.772 8.95007C25.407 9.34212 25.9048 9.88353 26.2652 10.5743C26.6428 11.265 26.8316 12.0211 26.8316 12.8426V14.8439C26.8316 15.6467 26.6428 16.3934 26.2652 17.0842C25.9048 17.775 25.407 18.3257 24.772 18.7364C24.137 19.1471 23.4419 19.3525 22.6867 19.3525ZM13.2491 20.5842C12.8887 19.8934 12.7085 19.1467 12.7085 18.3439V16.3426C12.7085 15.5211 12.8887 14.765 13.2491 14.0743C13.6267 13.3835 14.133 12.8421 14.7681 12.4501C15.4031 12.0393 16.0982 11.834 16.8534 11.834C17.6086 11.834 18.3037 12.0393 18.9388 12.4501C19.5738 12.8421 20.0715 13.3835 20.432 14.0743C20.8096 14.765 20.9983 15.5211 20.9983 16.3426V18.3439C20.9983 19.1467 20.8096 19.8934 20.432 20.5842C20.0715 21.275 19.5738 21.8257 18.9388 22.2364C18.3037 22.6471 17.6086 22.8525 16.8534 22.8525C16.0982 22.8525 15.4031 22.6471 14.7681 22.2364C14.133 21.8257 13.6267 21.275 13.2491 20.5842ZM21.3102 24.6108C20.0578 24.1732 18.6489 23.9544 17.0835 23.9544C15.5181 23.9544 14.1092 24.1732 12.8568 24.6108C11.8022 24.9755 10.8876 25.486 10.1132 26.1424C9.4705 26.6712 8.97615 27.2456 8.63011 27.8655C8.43237 28.2485 8.3335 28.7499 8.3335 29.3698C8.3335 29.9898 8.53124 30.5277 8.92672 30.9835C9.33868 31.4394 9.83303 31.6673 10.4098 31.6673H23.7572C24.334 31.6673 24.8201 31.4394 25.2156 30.9835C25.6275 30.5277 25.8335 29.9898 25.8335 29.3698C25.8335 28.7499 25.7346 28.2485 25.5369 27.8655C25.1908 27.2456 24.6965 26.6712 24.0538 26.1424C23.2794 25.486 22.3648 24.9755 21.3102 24.6108Z" fill="#F9FAFA"/>
</svg>
