<svg width="97" height="16" viewBox="0 0 97 16" fill="none" xmlns="http://www.w3.org/2000/svg">
<path d="M8.66347 3.384C7.43147 3.384 6.48747 3.76 5.83147 4.512C5.17547 5.264 4.84747 6.328 4.84747 7.704C4.84747 9.096 5.20747 10.168 5.92747 10.92C6.66347 11.672 7.64747 12.048 8.87947 12.048C9.53547 12.048 10.0875 11.96 10.5355 11.784C10.9995 11.608 11.4395 11.408 11.8555 11.184C12.1275 11.408 12.3355 11.68 12.4795 12C12.6395 12.304 12.7195 12.664 12.7195 13.08C12.7195 13.736 12.3515 14.296 11.6155 14.76C10.8955 15.208 9.79147 15.432 8.30347 15.432C7.23147 15.432 6.22347 15.28 5.27947 14.976C4.33547 14.672 3.51147 14.208 2.80747 13.584C2.10347 12.944 1.54347 12.144 1.12747 11.184C0.72747 10.208 0.527469 9.048 0.527469 7.704C0.527469 6.456 0.71947 5.36 1.10347 4.416C1.50347 3.456 2.03947 2.648 2.71147 1.992C3.39947 1.336 4.19947 0.84 5.11147 0.503999C6.02347 0.168 6.99947 0 8.03947 0C9.51147 0 10.6475 0.24 11.4475 0.719999C12.2635 1.2 12.6715 1.816 12.6715 2.568C12.6715 2.984 12.5675 3.344 12.3595 3.648C12.1515 3.952 11.9115 4.192 11.6395 4.368C11.2235 4.096 10.7755 3.864 10.2955 3.672C9.83147 3.48 9.28747 3.384 8.66347 3.384ZM26.4617 9.168C26.4617 10.16 26.3097 11.048 26.0057 11.832C25.7017 12.6 25.2697 13.248 24.7097 13.776C24.1657 14.304 23.5097 14.704 22.7417 14.976C21.9737 15.248 21.1177 15.384 20.1737 15.384C19.2297 15.384 18.3737 15.24 17.6057 14.952C16.8377 14.664 16.1737 14.256 15.6137 13.728C15.0697 13.184 14.6457 12.528 14.3417 11.76C14.0377 10.992 13.8857 10.128 13.8857 9.168C13.8857 8.224 14.0377 7.368 14.3417 6.6C14.6457 5.832 15.0697 5.184 15.6137 4.656C16.1737 4.112 16.8377 3.696 17.6057 3.408C18.3737 3.12 19.2297 2.976 20.1737 2.976C21.1177 2.976 21.9737 3.128 22.7417 3.432C23.5097 3.72 24.1657 4.136 24.7097 4.68C25.2697 5.208 25.7017 5.856 26.0057 6.624C26.3097 7.392 26.4617 8.24 26.4617 9.168ZM18.0617 9.168C18.0617 10.144 18.2457 10.896 18.6137 11.424C18.9977 11.936 19.5257 12.192 20.1977 12.192C20.8697 12.192 21.3817 11.928 21.7337 11.4C22.1017 10.872 22.2857 10.128 22.2857 9.168C22.2857 8.208 22.1017 7.472 21.7337 6.96C21.3657 6.432 20.8457 6.168 20.1737 6.168C19.5017 6.168 18.9817 6.432 18.6137 6.96C18.2457 7.472 18.0617 8.208 18.0617 9.168ZM35.8922 7.608C35.8922 7.112 35.7482 6.752 35.4602 6.528C35.1882 6.288 34.8122 6.168 34.3322 6.168C34.0122 6.168 33.6922 6.208 33.3722 6.288C33.0682 6.368 32.8042 6.488 32.5802 6.648V14.976C32.4202 15.024 32.1642 15.072 31.8122 15.12C31.4762 15.168 31.1242 15.192 30.7562 15.192C30.4042 15.192 30.0842 15.168 29.7962 15.12C29.5242 15.072 29.2922 14.976 29.1002 14.832C28.9082 14.688 28.7562 14.496 28.6442 14.256C28.5482 14 28.5002 13.672 28.5002 13.272V6.072C28.5002 5.64 28.5882 5.288 28.7642 5.016C28.9562 4.744 29.2122 4.496 29.5322 4.272C30.0762 3.888 30.7562 3.576 31.5722 3.336C32.4042 3.096 33.3242 2.976 34.3322 2.976C36.1402 2.976 37.5322 3.376 38.5082 4.176C39.4842 4.96 39.9722 6.056 39.9722 7.464V14.976C39.8122 15.024 39.5562 15.072 39.2042 15.12C38.8682 15.168 38.5162 15.192 38.1482 15.192C37.7962 15.192 37.4762 15.168 37.1882 15.12C36.9162 15.072 36.6842 14.976 36.4922 14.832C36.3002 14.688 36.1482 14.496 36.0362 14.256C35.9402 14 35.8922 13.672 35.8922 13.272V7.608ZM46.6204 10.992C46.6204 11.408 46.7484 11.704 47.0044 11.88C47.2764 12.056 47.6524 12.144 48.1324 12.144C48.3724 12.144 48.6204 12.128 48.8764 12.096C49.1324 12.048 49.3564 11.992 49.5484 11.928C49.6924 12.104 49.8124 12.304 49.9084 12.528C50.0204 12.736 50.0764 12.992 50.0764 13.296C50.0764 13.904 49.8444 14.4 49.3804 14.784C48.9324 15.168 48.1324 15.36 46.9804 15.36C45.5724 15.36 44.4844 15.04 43.7164 14.4C42.9644 13.76 42.5884 12.72 42.5884 11.28V1.008C42.7644 0.96 43.0124 0.911999 43.3324 0.863999C43.6684 0.799999 44.0204 0.767999 44.3884 0.767999C45.0924 0.767999 45.6364 0.895999 46.0204 1.152C46.4204 1.392 46.6204 1.912 46.6204 2.712V4.248H49.7644C49.8604 4.424 49.9484 4.648 50.0284 4.92C50.1244 5.176 50.1724 5.464 50.1724 5.784C50.1724 6.344 50.0444 6.752 49.7884 7.008C49.5484 7.248 49.2204 7.368 48.8044 7.368H46.6204V10.992ZM57.1898 12.408C57.4618 12.408 57.7578 12.384 58.0778 12.336C58.4138 12.272 58.6618 12.192 58.8218 12.096V10.176L57.0938 10.32C56.6458 10.352 56.2778 10.448 55.9898 10.608C55.7018 10.768 55.5578 11.008 55.5578 11.328C55.5578 11.648 55.6778 11.912 55.9178 12.12C56.1738 12.312 56.5978 12.408 57.1898 12.408ZM56.9978 2.976C57.8618 2.976 58.6458 3.064 59.3498 3.24C60.0698 3.416 60.6778 3.688 61.1738 4.056C61.6858 4.408 62.0778 4.864 62.3498 5.424C62.6218 5.968 62.7578 6.616 62.7578 7.368V12.744C62.7578 13.16 62.6378 13.504 62.3978 13.776C62.1738 14.032 61.9018 14.256 61.5818 14.448C60.5418 15.072 59.0778 15.384 57.1898 15.384C56.3418 15.384 55.5738 15.304 54.8858 15.144C54.2138 14.984 53.6298 14.744 53.1338 14.424C52.6538 14.104 52.2778 13.696 52.0058 13.2C51.7498 12.704 51.6218 12.128 51.6218 11.472C51.6218 10.368 51.9498 9.52 52.6058 8.928C53.2618 8.336 54.2778 7.968 55.6538 7.824L58.7978 7.488V7.32C58.7978 6.856 58.5898 6.528 58.1738 6.336C57.7738 6.128 57.1898 6.024 56.4218 6.024C55.8138 6.024 55.2218 6.088 54.6458 6.216C54.0698 6.344 53.5498 6.504 53.0858 6.696C52.8778 6.552 52.7018 6.336 52.5578 6.048C52.4138 5.744 52.3418 5.432 52.3418 5.112C52.3418 4.696 52.4378 4.368 52.6298 4.128C52.8378 3.872 53.1498 3.656 53.5658 3.48C54.0298 3.304 54.5738 3.176 55.1978 3.096C55.8378 3.016 56.4378 2.976 56.9978 2.976ZM71.8765 6.192C71.4765 6.192 71.0925 6.256 70.7245 6.384C70.3725 6.512 70.0605 6.704 69.7885 6.96C69.5325 7.2 69.3245 7.504 69.1645 7.872C69.0045 8.24 68.9245 8.672 68.9245 9.168C68.9245 10.16 69.2045 10.904 69.7645 11.4C70.3405 11.896 71.0365 12.144 71.8525 12.144C72.3325 12.144 72.7485 12.088 73.1005 11.976C73.4525 11.864 73.7645 11.744 74.0365 11.616C74.3565 11.84 74.5965 12.088 74.7565 12.36C74.9165 12.616 74.9965 12.928 74.9965 13.296C74.9965 13.952 74.6845 14.464 74.0605 14.832C73.4365 15.184 72.5725 15.36 71.4685 15.36C70.4605 15.36 69.5485 15.216 68.7325 14.928C67.9165 14.624 67.2125 14.208 66.6205 13.68C66.0445 13.136 65.5965 12.488 65.2765 11.736C64.9565 10.984 64.7965 10.152 64.7965 9.24C64.7965 8.184 64.9645 7.264 65.3005 6.48C65.6525 5.68 66.1245 5.024 66.7165 4.512C67.3085 4 67.9885 3.616 68.7565 3.36C69.5405 3.104 70.3645 2.976 71.2285 2.976C72.3805 2.976 73.2685 3.184 73.8925 3.6C74.5165 4.016 74.8285 4.552 74.8285 5.208C74.8285 5.512 74.7565 5.8 74.6125 6.072C74.4685 6.328 74.3005 6.552 74.1085 6.744C73.8365 6.616 73.5085 6.496 73.1245 6.384C72.7405 6.256 72.3245 6.192 71.8765 6.192ZM81.1707 10.992C81.1707 11.408 81.2987 11.704 81.5547 11.88C81.8267 12.056 82.2027 12.144 82.6827 12.144C82.9227 12.144 83.1707 12.128 83.4267 12.096C83.6827 12.048 83.9067 11.992 84.0987 11.928C84.2427 12.104 84.3627 12.304 84.4587 12.528C84.5707 12.736 84.6267 12.992 84.6267 13.296C84.6267 13.904 84.3947 14.4 83.9307 14.784C83.4827 15.168 82.6827 15.36 81.5307 15.36C80.1227 15.36 79.0347 15.04 78.2667 14.4C77.5147 13.76 77.1387 12.72 77.1387 11.28V1.008C77.3147 0.96 77.5627 0.911999 77.8827 0.863999C78.2187 0.799999 78.5707 0.767999 78.9387 0.767999C79.6427 0.767999 80.1867 0.895999 80.5707 1.152C80.9707 1.392 81.1707 1.912 81.1707 2.712V4.248H84.3147C84.4107 4.424 84.4987 4.648 84.5787 4.92C84.6747 5.176 84.7227 5.464 84.7227 5.784C84.7227 6.344 84.5947 6.752 84.3387 7.008C84.0987 7.248 83.7707 7.368 83.3547 7.368H81.1707V10.992ZM96.588 11.52C96.588 12.736 96.132 13.688 95.22 14.376C94.308 15.064 92.964 15.408 91.188 15.408C90.516 15.408 89.892 15.36 89.316 15.264C88.74 15.168 88.244 15.024 87.828 14.832C87.428 14.624 87.108 14.368 86.868 14.064C86.644 13.76 86.532 13.4 86.532 12.984C86.532 12.6 86.612 12.28 86.772 12.024C86.932 11.752 87.124 11.528 87.348 11.352C87.812 11.608 88.34 11.84 88.932 12.048C89.54 12.24 90.236 12.336 91.02 12.336C91.516 12.336 91.892 12.264 92.148 12.12C92.42 11.976 92.556 11.784 92.556 11.544C92.556 11.32 92.46 11.144 92.268 11.016C92.076 10.888 91.756 10.784 91.308 10.704L90.588 10.56C89.196 10.288 88.156 9.864 87.468 9.288C86.796 8.696 86.46 7.856 86.46 6.768C86.46 6.176 86.588 5.64 86.844 5.16C87.1 4.68 87.46 4.28 87.924 3.96C88.388 3.64 88.94 3.392 89.58 3.216C90.236 3.04 90.956 2.952 91.74 2.952C92.332 2.952 92.884 3 93.396 3.096C93.924 3.176 94.38 3.304 94.764 3.48C95.148 3.656 95.452 3.888 95.676 4.176C95.9 4.448 96.012 4.776 96.012 5.16C96.012 5.528 95.94 5.848 95.796 6.12C95.668 6.376 95.5 6.592 95.292 6.768C95.164 6.688 94.972 6.608 94.716 6.528C94.46 6.432 94.18 6.352 93.876 6.288C93.572 6.208 93.26 6.144 92.94 6.096C92.636 6.048 92.356 6.024 92.1 6.024C91.572 6.024 91.164 6.088 90.876 6.216C90.588 6.328 90.444 6.512 90.444 6.768C90.444 6.944 90.524 7.088 90.684 7.2C90.844 7.312 91.148 7.416 91.596 7.512L92.34 7.68C93.876 8.032 94.964 8.52 95.604 9.144C96.26 9.752 96.588 10.544 96.588 11.52Z" fill="#009DFF"/>
</svg>
