<svg width="30" height="30" viewBox="0 0 30 30" fill="none" xmlns="http://www.w3.org/2000/svg">
<g id="icons/plus_in_circle">
<path id="Ellipse 294 (Stroke)" fill-rule="evenodd" clip-rule="evenodd" d="M15 25.625C20.868 25.625 25.625 20.868 25.625 15C25.625 9.13197 20.868 4.375 15 4.375C9.13197 4.375 4.375 9.13197 4.375 15C4.375 20.868 9.13197 25.625 15 25.625ZM15 27.5C21.9036 27.5 27.5 21.9036 27.5 15C27.5 8.09644 21.9036 2.5 15 2.5C8.09644 2.5 2.5 8.09644 2.5 15C2.5 21.9036 8.09644 27.5 15 27.5Z" fill="#464E53"/>
<path id="Union" fill-rule="evenodd" clip-rule="evenodd" d="M15.9375 8.75C15.9375 8.23223 15.5178 7.8125 15 7.8125C14.4822 7.8125 14.0625 8.23223 14.0625 8.75V14.0625H8.75C8.23223 14.0625 7.8125 14.4822 7.8125 15C7.8125 15.5178 8.23223 15.9375 8.75 15.9375H14.0625V21.25C14.0625 21.7678 14.4822 22.1875 15 22.1875C15.5178 22.1875 15.9375 21.7678 15.9375 21.25V15.9375H21.25C21.7678 15.9375 22.1875 15.5178 22.1875 15C22.1875 14.4822 21.7678 14.0625 21.25 14.0625H15.9375V8.75Z" fill="#464E53"/>
</g>
</svg>
