<svg width="32" height="32" viewBox="0 0 32 32" fill="none" xmlns="http://www.w3.org/2000/svg">
<g id="icons/envelope">
<path id="Subtract" fill-rule="evenodd" clip-rule="evenodd" d="M4.66675 5.33301C3.56218 5.33301 2.66675 6.22844 2.66675 7.33301V24.6663C2.66675 25.7709 3.56218 26.6663 4.66675 26.6663H27.3334C28.438 26.6663 29.3334 25.7709 29.3334 24.6663V7.33301C29.3334 6.22844 28.438 5.33301 27.3334 5.33301H4.66675ZM7.98376 9.82086C7.51682 9.46168 6.84712 9.54903 6.48794 10.016C6.12875 10.4829 6.21611 11.1526 6.68304 11.5118L14.5368 17.5531C15.3994 18.2167 16.6007 18.2167 17.4634 17.5531L25.3171 11.5118C25.784 11.1526 25.8714 10.4829 25.5122 10.016C25.153 9.54903 24.4833 9.46168 24.0164 9.82086L16.1627 15.8622C16.0668 15.9359 15.9333 15.9359 15.8375 15.8622L7.98376 9.82086Z" fill="#464E53"/>
</g>
</svg>
