<svg width="30" height="30" viewBox="0 0 30 30" fill="none" xmlns="http://www.w3.org/2000/svg">
<g id="icons/checked_ellipse">
<path id="Subtract" fill-rule="evenodd" clip-rule="evenodd" d="M27.5 14.7637C27.5 21.6672 21.9036 27.2637 15 27.2637C8.09644 27.2637 2.5 21.6672 2.5 14.7637C2.5 7.86011 8.09644 2.26367 15 2.26367C21.9036 2.26367 27.5 7.86011 27.5 14.7637ZM22.1783 12.6184C22.6199 12.1814 22.6236 11.4691 22.1866 11.0275C21.7496 10.5858 21.0373 10.5821 20.5956 11.0191L13.2513 18.3059L9.43402 14.5188C8.99239 14.0818 8.28009 14.0855 7.84305 14.5272C7.40602 14.9688 7.40975 15.6811 7.85138 16.1181L12.4599 20.6883C12.8983 21.1221 13.6042 21.1221 14.0426 20.6883L22.1783 12.6184Z" fill="#009DFF"/>
</g>
</svg>
