<svg width="28" height="28" viewBox="0 0 28 28" fill="none" xmlns="http://www.w3.org/2000/svg">
<g id="icons/unchecked_rectangle">
<path id="Rectangle 22 (Stroke)" fill-rule="evenodd" clip-rule="evenodd" d="M22.1667 5.0293H5.83333C5.51117 5.0293 5.25 5.29046 5.25 5.61263V21.946C5.25 22.2681 5.51117 22.5293 5.83333 22.5293H22.1667C22.4888 22.5293 22.75 22.2681 22.75 21.946V5.61263C22.75 5.29046 22.4888 5.0293 22.1667 5.0293ZM5.83333 3.2793C4.54467 3.2793 3.5 4.32397 3.5 5.61263V21.946C3.5 23.2346 4.54467 24.2793 5.83333 24.2793H22.1667C23.4553 24.2793 24.5 23.2346 24.5 21.946V5.61263C24.5 4.32397 23.4553 3.2793 22.1667 3.2793H5.83333Z" fill="#ACB4B9"/>
</g>
</svg>
