<svg width="28" height="28" viewBox="0 0 28 28" fill="none" xmlns="http://www.w3.org/2000/svg">
<g id="icons/checked_rectangle">
<path id="Subtract" fill-rule="evenodd" clip-rule="evenodd" d="M3.5 5.61263C3.5 4.32397 4.54467 3.2793 5.83333 3.2793H22.1667C23.4553 3.2793 24.5 4.32397 24.5 5.61263V21.946C24.5 23.2346 23.4553 24.2793 22.1667 24.2793H5.83333C4.54467 24.2793 3.5 23.2346 3.5 21.946V5.61263ZM20.6832 10.909C21.0954 10.5011 21.0989 9.83626 20.691 9.42407C20.2831 9.01187 19.6183 9.00839 19.2061 9.41629L12.3513 16.2173L8.78856 12.6827C8.37637 12.2748 7.71156 12.2783 7.30366 12.6905C6.89576 13.1027 6.89924 13.7675 7.31144 14.1754L11.6127 18.4409C12.0219 18.8457 12.6807 18.8457 13.0899 18.4409L20.6832 10.909Z" fill="#009DFF"/>
</g>
</svg>
