<svg width="24" height="24" viewBox="0 0 24 24" fill="none" xmlns="http://www.w3.org/2000/svg">
<path fill-rule="evenodd" clip-rule="evenodd" d="M8.8291 5.96329C9.12385 5.67226 9.60173 5.67226 9.89648 5.96329C13.273 9.29716 13.273 14.7024 9.89648 18.0363C9.60173 18.3273 9.12385 18.3273 8.8291 18.0363C8.53436 17.7453 8.53436 17.2734 8.8291 16.9824C11.6161 14.2306 11.6161 9.769 8.8291 7.01719C8.53436 6.72616 8.53436 6.25432 8.8291 5.96329Z" fill="#5270AD"/>
<path fill-rule="evenodd" clip-rule="evenodd" d="M5.51001 8.46768C5.80476 8.17666 6.28264 8.17666 6.57739 8.46768C8.55309 10.4184 8.55309 13.5812 6.57739 15.532C6.28264 15.823 5.80476 15.823 5.51001 15.532C5.21526 15.2409 5.21526 14.7691 5.51001 14.4781C6.89622 13.1094 6.89622 10.8903 5.51001 9.52158C5.21526 9.23056 5.21526 8.75871 5.51001 8.46768Z" fill="#5270AD"/>
</svg>
