<svg width="32" height="32" viewBox="0 0 32 32" fill="none" xmlns="http://www.w3.org/2000/svg">
<g id="icons/doc">
<path id="Subtract" fill-rule="evenodd" clip-rule="evenodd" d="M8.38087 2.66602C6.69772 2.66602 5.33325 4.00916 5.33325 5.66602V26.3327C5.33325 27.9895 6.69772 29.3327 8.38087 29.3327H23.619C25.3021 29.3327 26.6666 27.9895 26.6666 26.3327V9.90866C26.6666 9.11301 26.3455 8.34995 25.774 7.78734L21.464 3.5447C20.8924 2.98209 20.1173 2.66602 19.309 2.66602H8.38087ZM10.3333 7.99935C9.78097 7.99935 9.33325 8.44706 9.33325 8.99935C9.33325 9.55163 9.78097 9.99935 10.3333 9.99935H16.3333C16.8855 9.99935 17.3333 9.55163 17.3333 8.99935C17.3333 8.44706 16.8855 7.99935 16.3333 7.99935H10.3333ZM9.33325 14.9993C9.33325 14.4471 9.78097 13.9993 10.3333 13.9993H21.6666C22.2189 13.9993 22.6666 14.4471 22.6666 14.9993C22.6666 15.5516 22.2189 15.9993 21.6666 15.9993H10.3333C9.78097 15.9993 9.33325 15.5516 9.33325 14.9993ZM10.3333 19.9993C9.78097 19.9993 9.33325 20.4471 9.33325 20.9993C9.33325 21.5516 9.78097 21.9993 10.3333 21.9993H21.6666C22.2189 21.9993 22.6666 21.5516 22.6666 20.9993C22.6666 20.4471 22.2189 19.9993 21.6666 19.9993H10.3333Z" fill="#ACB4B9"/>
</g>
</svg>
