<svg width="64" height="64" viewBox="0 0 64 64" fill="none" xmlns="http://www.w3.org/2000/svg">
<path fill-rule="evenodd" clip-rule="evenodd" d="M32 54.6673C44.5185 54.6673 54.6667 44.5191 54.6667 32.0007C54.6667 19.4822 44.5185 9.33398 32 9.33398C19.4816 9.33398 9.33337 19.4822 9.33337 32.0007C9.33337 44.5191 19.4816 54.6673 32 54.6673ZM32 58.6673C46.7276 58.6673 58.6667 46.7282 58.6667 32.0007C58.6667 17.2731 46.7276 5.33398 32 5.33398C17.2724 5.33398 5.33337 17.2731 5.33337 32.0007C5.33337 46.7282 17.2724 58.6673 32 58.6673Z" fill="#F9FAFA"/>
<path d="M42.9933 29.7804C44.6915 30.7669 44.6915 33.2331 42.9933 34.2196L26.7545 43.6528C25.0564 44.6393 22.9336 43.4062 22.9336 41.4332V22.5668C22.9336 20.5938 25.0564 19.3607 26.7545 20.3472L42.9933 29.7804Z" fill="#F9FAFA"/>
</svg>
