<svg width="18" height="16" viewBox="0 0 18 16" fill="none" xmlns="http://www.w3.org/2000/svg">
<g id="Group 609">
<path id="Ellipse 219 (Stroke)" fill-rule="evenodd" clip-rule="evenodd" d="M9.11881 15.5218C8.87319 15.7643 8.47495 15.7643 8.22933 15.5218C4.02165 11.3673 4.02165 4.63144 8.22933 0.476899C8.47496 0.234377 8.87319 0.234377 9.11881 0.476899C9.36444 0.71942 9.36444 1.11263 9.11881 1.35515C5.40238 5.02464 5.40238 10.9741 9.11881 14.6436C9.36444 14.8861 9.36444 15.2793 9.11881 15.5218Z" fill="#F9FAFA"/>
<path id="Ellipse 220 (Stroke)" fill-rule="evenodd" clip-rule="evenodd" d="M11.6423 13.0296C11.3966 13.2721 10.9984 13.2721 10.7528 13.0296C7.93901 10.2514 7.93901 5.74701 10.7528 2.96879C10.9984 2.72627 11.3966 2.72627 11.6423 2.96879C11.8879 3.21132 11.8879 3.60452 11.6423 3.84704C9.31974 6.14022 9.31974 9.8582 11.6423 12.1514C11.8879 12.3939 11.8879 12.7871 11.6423 13.0296Z" fill="#F9FAFA"/>
<path id="Ellipse 221 (Stroke)" fill-rule="evenodd" clip-rule="evenodd" d="M14.4084 10.9437C14.1627 11.1862 13.7645 11.1862 13.5189 10.9437C11.8725 9.31806 11.8725 6.68241 13.5189 5.05678C13.7645 4.81426 14.1627 4.81426 14.4084 5.05678C14.654 5.2993 14.654 5.69251 14.4084 5.93503C13.2532 7.07561 13.2532 8.92486 14.4084 10.0654C14.654 10.308 14.654 10.7012 14.4084 10.9437Z" fill="#F9FAFA"/>
</g>
</svg>
