<svg width="20" height="20" viewBox="0 0 20 20" fill="none" xmlns="http://www.w3.org/2000/svg">
<path fill-rule="evenodd" clip-rule="evenodd" d="M2.68944 9.28117C2.9392 9.04291 3.33482 9.05223 3.57308 9.30199L6.57925 12.4429L6.60394 12.4186C6.8498 12.1763 7.24551 12.1792 7.4878 12.4251C7.73009 12.6709 7.7272 13.0666 7.48134 13.3089L7.00419 13.7791C6.88488 13.8967 6.72335 13.9615 6.55585 13.9589C6.38835 13.9563 6.2289 13.8866 6.11327 13.7654L2.66862 10.1648C2.43036 9.91505 2.43968 9.51943 2.68944 9.28117ZM8.97684 10.8572C8.72876 10.6172 8.7222 10.2215 8.9622 9.97341L12.7846 6.02907C13.0246 5.78098 13.4203 5.77442 13.6684 6.01443C13.9165 6.25443 13.923 6.6501 13.683 6.89819L9.8606 10.8425C9.6206 11.0906 9.22493 11.0972 8.97684 10.8572Z" fill="#ACB4B9"/>
<path fill-rule="evenodd" clip-rule="evenodd" d="M5.7067 9.29461C5.94912 9.04889 6.34484 9.04622 6.59056 9.28864L9.80165 12.4595L16.4392 6.01108C16.6869 5.77068 17.0826 5.77658 17.323 6.02428C17.5634 6.27197 17.5575 6.66765 17.3098 6.90806L10.2334 13.7825C9.98947 14.0192 9.60109 14.0176 9.35913 13.7789L5.71266 10.1785C5.46694 9.93605 5.46427 9.54033 5.7067 9.29461Z" fill="#ACB4B9"/>
</svg>
