<svg width="18" height="16" viewBox="0 0 18 16" fill="none" xmlns="http://www.w3.org/2000/svg">
<g id="Group 609">
<path id="Ellipse 219 (Stroke)" fill-rule="evenodd" clip-rule="evenodd" d="M8.88119 0.47721C9.12681 0.234689 9.52505 0.234689 9.77067 0.47721C13.9783 4.63175 13.9783 11.3676 9.77067 15.5221C9.52505 15.7646 9.12681 15.7646 8.88119 15.5221C8.63556 15.2796 8.63556 14.8864 8.88119 14.6439C12.5976 10.9744 12.5976 5.02495 8.88119 1.35546C8.63556 1.11294 8.63556 0.719732 8.88119 0.47721Z" fill="#5270AD"/>
<path id="Ellipse 220 (Stroke)" fill-rule="evenodd" clip-rule="evenodd" d="M6.35775 2.9694C6.60337 2.72688 7.00161 2.72688 7.24723 2.9694C10.061 5.74762 10.061 10.252 7.24723 13.0302C7.00161 13.2728 6.60337 13.2728 6.35775 13.0302C6.11213 12.7877 6.11213 12.3945 6.35775 12.152C8.68026 9.8588 8.68026 6.14083 6.35775 3.84765C6.11213 3.60513 6.11213 3.21192 6.35775 2.9694Z" fill="#5270AD"/>
<path id="Ellipse 221 (Stroke)" fill-rule="evenodd" clip-rule="evenodd" d="M3.59164 5.05631C3.83726 4.81379 4.23549 4.81379 4.48112 5.05631C6.12754 6.68194 6.12754 9.31759 4.48112 10.9432C4.23549 11.1857 3.83726 11.1857 3.59164 10.9432C3.34601 10.7007 3.34601 10.3075 3.59164 10.065C4.74681 8.92439 4.74681 7.07514 3.59164 5.93456C3.34601 5.69204 3.34601 5.29883 3.59164 5.05631Z" fill="#5270AD"/>
</g>
</svg>
