<svg width="20" height="20" viewBox="0 0 20 20" fill="none" xmlns="http://www.w3.org/2000/svg">
<path fill-rule="evenodd" clip-rule="evenodd" d="M10.0001 17.0827C13.9121 17.0827 17.0834 13.9114 17.0834 9.99935C17.0834 6.08733 13.9121 2.91602 10.0001 2.91602C6.08806 2.91602 2.91675 6.08733 2.91675 9.99935C2.91675 13.9114 6.08806 17.0827 10.0001 17.0827ZM10.0001 18.3327C14.6025 18.3327 18.3334 14.6017 18.3334 9.99935C18.3334 5.39698 14.6025 1.66602 10.0001 1.66602C5.39771 1.66602 1.66675 5.39698 1.66675 9.99935C1.66675 14.6017 5.39771 18.3327 10.0001 18.3327Z" fill="#FF002B"/>
<path fill-rule="evenodd" clip-rule="evenodd" d="M10 15.25C10.6904 15.25 11.25 14.6904 11.25 14C11.25 13.3096 10.6904 12.75 10 12.75C9.30964 12.75 8.75 13.3096 8.75 14C8.75 14.6904 9.30964 15.25 10 15.25ZM9.16667 11.0019C9.16667 11.4615 9.53976 11.834 10 11.834C10.4602 11.834 10.8333 11.4615 10.8333 11.0019L10.8333 5.58265C10.8333 5.12314 10.4602 4.75063 10 4.75063C9.53976 4.75063 9.16667 5.12314 9.16667 5.58265L9.16667 11.0019Z" fill="#FF002B"/>
</svg>
