<svg width="132" height="132" viewBox="0 0 132 132" fill="none" xmlns="http://www.w3.org/2000/svg">
<rect x="0.5" y="0.5" width="131" height="131" rx="3.5" fill="#E3E6E8" stroke="#C8CDD0"/>
<path fill-rule="evenodd" clip-rule="evenodd" d="M86.4453 49.25H43.7786C43.0423 49.25 42.4453 49.847 42.4453 50.5833V82.5833C42.4453 83.3197 43.0423 83.9167 43.7786 83.9167H86.4453C87.1817 83.9167 87.7786 83.3197 87.7786 82.5833V50.5833C87.7786 49.847 87.1817 49.25 86.4453 49.25ZM43.7786 45.25C40.8331 45.25 38.4453 47.6378 38.4453 50.5833V82.5833C38.4453 85.5289 40.8331 87.9167 43.7786 87.9167H86.4453C89.3908 87.9167 91.7786 85.5289 91.7786 82.5833V50.5833C91.7786 47.6378 89.3908 45.25 86.4453 45.25H43.7786Z" fill="#ACB4B9"/>
<path d="M68.2252 65.7486L49 85.1712H89V78.0057L77.3474 65.8291C74.837 63.2058 70.7776 63.17 68.2252 65.7486Z" fill="#ACB4B9"/>
<circle cx="53.6667" cy="60.5046" r="4.66667" fill="#ACB4B9"/>
</svg>
