<svg width="20" height="20" viewBox="0 0 20 20" fill="none" xmlns="http://www.w3.org/2000/svg">
<path fill-rule="evenodd" clip-rule="evenodd" d="M10.0001 2.91602C6.08806 2.91602 2.91675 6.08733 2.91675 9.99935C2.91675 10.3445 2.63693 10.6243 2.29175 10.6243C1.94657 10.6243 1.66675 10.3445 1.66675 9.99935C1.66675 5.39698 5.39771 1.66602 10.0001 1.66602C14.6025 1.66602 18.3334 5.39698 18.3334 9.99935C18.3334 14.6017 14.6025 18.3327 10.0001 18.3327C9.6549 18.3327 9.37508 18.0529 9.37508 17.7077C9.37508 17.3625 9.6549 17.0827 10.0001 17.0827C13.9121 17.0827 17.0834 13.9114 17.0834 9.99935C17.0834 6.08733 13.9121 2.91602 10.0001 2.91602Z" fill="#ACB4B9"/>
</svg>
