<svg width="24" height="24" viewBox="0 0 24 24" fill="none" xmlns="http://www.w3.org/2000/svg">
<path fill-rule="evenodd" clip-rule="evenodd" d="M15.1709 18.0366C14.8761 18.3276 14.3983 18.3276 14.1035 18.0366C10.727 14.7027 10.727 9.29746 14.1035 5.96359C14.3983 5.67256 14.8761 5.67256 15.1709 5.96359C15.4656 6.25462 15.4656 6.72646 15.1709 7.01749C12.3839 9.7693 12.3839 14.2309 15.1709 16.9827C15.4656 17.2737 15.4656 17.7456 15.1709 18.0366Z" fill="#314368"/>
<path fill-rule="evenodd" clip-rule="evenodd" d="M18.49 15.5322C18.1952 15.8232 17.7174 15.8232 17.4226 15.5322C15.4469 13.5814 15.4469 10.4187 17.4226 8.46791C17.7174 8.17688 18.1952 8.17688 18.49 8.46791C18.7847 8.75893 18.7847 9.23078 18.49 9.52181C17.1038 10.8905 17.1038 13.1096 18.49 14.4783C18.7847 14.7693 18.7847 15.2412 18.49 15.5322Z" fill="#314368"/>
</svg>
